<?xml version="1.0" encoding="UTF-8" standalone="no"?>
<svg
   xmlns:dc="http://purl.org/dc/elements/1.1/"
   xmlns:cc="http://creativecommons.org/ns#"
   xmlns:rdf="http://www.w3.org/1999/02/22-rdf-syntax-ns#"
   xmlns:svg="http://www.w3.org/2000/svg"
   xmlns="http://www.w3.org/2000/svg"
   xmlns:sodipodi="http://sodipodi.sourceforge.net/DTD/sodipodi-0.dtd"
   xmlns:inkscape="http://www.inkscape.org/namespaces/inkscape"
   width="150mm"
   height="120mm"
   viewBox="0 0 150 120"
   version="1.1"
   id="svg8"
   inkscape:version="1.0.1 (c497b03c, 2020-09-10)"
   sodipodi:docname="tutor_world7.svg"
   inkscape:export-filename="/Users/josephkranak/Documents/GitHub/Codeworks/Projects/Tutorsworld-Images/tutor_world7.png"
   inkscape:export-xdpi="123.28"
   inkscape:export-ydpi="123.28">
  <defs
     id="defs2" />
  <sodipodi:namedview
     id="base"
     pagecolor="#ffffff"
     bordercolor="#666666"
     borderopacity="1.0"
     inkscape:pageopacity="0.0"
     inkscape:pageshadow="2"
     inkscape:zoom="1.5738735"
     inkscape:cx="380.78273"
     inkscape:cy="251.8867"
     inkscape:document-units="mm"
     inkscape:current-layer="layer1"
     inkscape:document-rotation="0"
     showgrid="false"
     inkscape:window-width="1805"
     inkscape:window-height="1027"
     inkscape:window-x="1794"
     inkscape:window-y="25"
     inkscape:window-maximized="0" />
  <metadata
     id="metadata5">
    <rdf:RDF>
      <cc:Work
         rdf:about="">
        <dc:format>image/svg+xml</dc:format>
        <dc:type
           rdf:resource="http://purl.org/dc/dcmitype/StillImage" />
        <dc:title />
      </cc:Work>
    </rdf:RDF>
  </metadata>
  <g
     inkscape:label="Layer 1"
     inkscape:groupmode="layer"
     id="layer1">
    <ellipse
       style="fill:#f082ac;fill-opacity:1;stroke:#f082ac;stroke-width:0.500102;stroke-miterlimit:1;stroke-dasharray:none;stroke-dashoffset:0;stroke-opacity:1"
       id="path878"
       cx="52.996403"
       cy="82.856041"
       rx="34.998444"
       ry="42.420097"
       transform="matrix(0.99060128,-0.13678121,0.10841707,0.9941055,0,0)"
       inkscape:export-xdpi="15.29"
       inkscape:export-ydpi="15.29"
       inkscape:export-filename="/Users/josephkranak/Documents/GitHub/Codeworks/Projects/tutorworld/client/public/logo.png" />
    <path
       style="fill:#ffffff;fill-opacity:1;stroke:#f082ac;stroke-width:0.264584px;stroke-linecap:butt;stroke-linejoin:miter;stroke-opacity:1"
       d="m 44.124613,41.510337 c 0.735097,0.426573 1.09966,-0.322506 1.705242,-0.651607 0.277379,-0.150764 0.716884,-0.05888 0.852621,-0.390975 0.355832,-0.870214 -2.238122,-1.270161 -2.238122,-2.085174 0,-0.634548 2.771955,-2.898793 3.090751,-2.606444 0.181976,0.166997 0.37204,0.324625 0.532888,0.521301 0.140689,0.171741 0.602504,1.218112 0.95919,0.781961 0.06988,-0.08544 0.01279,-0.836108 0.426311,-1.172937 0.315188,-0.2569 1.517173,0.18865 1.811827,0.260561 0.32506,0.07987 1.46674,0.05301 1.70525,1e-5 0.126004,-0.02805 0.215493,-0.169702 0.319725,-0.26062 0.144517,-0.126238 0.360344,-0.189197 0.42631,-0.390996 0.234145,-0.715759 -1.663294,0.361067 -0.746035,-1.433517 0.06793,-0.132812 0.229161,-0.14982 0.319725,-0.260651 0.05612,-0.06863 0.04309,-0.202355 0.106553,-0.26066 0.48818,-0.447699 3.897352,-1.06133 4.582829,-0.781922 0.585676,0.23863 0.393967,2.074691 0,2.47613 -0.366143,0.373102 -0.838953,0.557753 -1.278931,0.781941 -0.325988,0.166171 -1.705348,0.544227 -0.319733,1.042572 0.226481,0.08156 1.485432,0.284968 1.918405,0.391005 1.081374,0.26436 0.747159,0.201659 1.70525,0.52136 1.47025,0.490388 2.17477,0.641123 2.664432,2.73676 0.0474,0.203112 0.309112,0.938216 0.213148,1.172897 -0.259851,0.635513 -1.410107,0.636557 -1.811812,0.390966 -0.05758,-0.03501 -0.282852,-0.305747 -0.319724,-0.260671 -0.216055,0.264162 1.270509,2.088575 0.639457,2.345794 -0.302856,0.123502 -0.537628,-0.05679 -0.746043,-0.26071 -0.452277,-0.442457 -2.644094,-1.241725 -3.197329,-1.303242 -0.454459,-0.05063 -1.441758,0.06167 -1.811827,-0.390956 -0.517437,-0.632718 -0.405003,-1.391833 0,-2.085163 0.04325,-0.0742 0.63062,-0.485047 0.42631,-0.651606 -0.08868,-0.07231 -0.213147,7.9e-5 -0.319724,-9e-5 -0.213147,8e-5 -0.426311,-4.9e-5 -0.639474,2e-5 -0.867046,-8.9e-5 -1.559177,0.350743 -2.23813,1.042592 -0.363659,0.370536 -0.439839,0.920522 -0.852621,1.172897 -0.479603,0.293214 -0.993929,0.333844 -1.492078,0.521291 -1.155437,0.434709 -0.368033,0.219901 -1.172354,0.781921 -0.376577,0.263137 -0.923303,0.260372 -1.27894,0.521291 -0.756615,0.555108 -1.528079,1.653627 -1.705241,2.736779 -0.04912,0.300595 -0.08837,1.293764 0,1.563873 0.323113,0.987708 2.632642,0.775446 3.303906,0.912237 0.255118,0.05112 0.490933,0.208641 0.746043,0.26072 0.546197,0.111914 1.066444,0.173959 1.598664,0.390916 0.106553,0.04347 0.240295,0.03233 0.319733,0.130573 0.187751,0.229479 0.374752,1.248618 0.42631,1.563843 0.115318,0.705395 -0.533279,0.955324 0.319741,1.824523 0.295648,0.301281 0.564801,0.471371 0.959191,0.390926 0.424958,-0.08663 0.405304,-1.150916 0.42631,-1.433527 0.08598,-1.156218 0.0096,-2.376518 -0.106545,-3.518701 -0.05473,-0.535813 -0.258629,-1.040802 -0.319733,-1.563873 -0.05025,-0.430054 0,-0.868821 0,-1.303212 0,-0.135169 -0.141324,-1.412273 -0.106553,-1.433567 0.559563,-0.34209 1.113148,-0.310501 1.70525,-0.390946 0.829204,-0.112711 1.700941,-0.351052 2.451285,0.26065 0.08358,0.06813 0.126973,0.197452 0.213164,0.260631 0.09635,0.07052 0.229852,0.04794 0.319732,0.130385 0.09985,0.0917 0.248766,0.52145 0.319733,0.651606 0.284954,0.522653 0.616424,0.767847 1.065784,1.042572 1.567355,0.958297 0.708715,-0.912257 1.385501,-0.912247 0.133668,-5e-5 0.746044,0.08305 0.746044,0.130236 0,0.389881 -0.161345,0.122985 -0.106554,0.390965 0.218621,1.069268 0.8085,2.417676 1.598665,2.9974 0.353143,0.259089 0.893117,0.142828 1.278931,0.260144 0.234813,0.07191 0.431116,0.393909 0.639474,0.5213 0.590799,0.361197 0.746043,0.440896 0.746043,1.303213 0,0.17378 0.03445,0.352712 0,0.52129 -0.128716,0.629327 -0.05074,-0.005 -0.213147,0.390956 -0.344771,0.84314 -1.061769,0.498753 -1.811828,0.651616 -0.287299,0.05858 -0.569304,0.173979 -0.852621,0.260631 -0.536512,0.164033 -1.148171,-0.02109 -1.705249,0.130295 -0.01434,0.005 -0.842106,0.117415 -0.852621,0.130285 -0.118991,0.145593 -0.106554,0.341951 -0.106554,0.651597 0,1.409865 0.886586,0.865031 1.172354,1.563872 0.143076,0.349779 -0.06508,0.629963 0.319733,0.912277 0.323186,0.237028 1.025141,0.219085 1.385501,0.130215 0.05563,-0.01363 0.540935,-0.381158 0.639474,-0.26063 0.12808,0.156533 -0.01678,0.459276 -0.106554,0.651596 -0.159886,0.34217 -0.40712,0.424345 -0.639457,0.651616 -0.852271,0.833721 -1.487102,0.285476 -2.451285,0.521271 -0.474081,0.115863 -0.847775,0.388002 -1.278931,0.651636 -0.173449,0.106166 -0.794059,0.228793 -0.85263,0.26063 -0.419867,0.228196 -1.793338,0.997397 -2.024974,1.563883 -0.155358,0.380114 -0.201679,1.289188 -0.426311,1.563863 -0.245539,0.300276 -0.787925,-0.02785 -0.95919,0.390945 -0.103678,0.253559 -0.491275,1.465187 -0.532888,1.694228 -0.0096,0.04923 -0.17761,1.650703 -0.213163,1.694158 -0.08055,0.09847 -0.86145,0.864455 -0.959191,0.912266 -0.57253,0.280046 -0.442682,0.100258 -0.959206,0.521281 -0.269666,0.219831 -0.433136,0.920612 -0.639458,1.172907 -0.02517,0.03064 -0.08151,-0.03123 -0.106553,4e-5 -0.05025,0.06157 0.05025,0.199242 0,0.26066 -0.02501,0.03073 -0.08151,-0.03123 -0.106553,4e-5 -0.123137,0.150556 0.01979,0.883492 0.106553,1.042572 0.124733,0.228862 0.302311,0.424176 0.42631,0.651616 0.403757,0.740565 0.445264,2.145974 0.213147,2.99742 -0.04993,0.1831 -0.224485,0.202415 -0.319724,0.26064 -0.903495,0.552383 -1.171523,-0.779892 -1.492087,-1.563872 -0.14898,-0.36424 -0.04846,-0.556908 -0.106545,-0.912227 -0.05759,-0.352026 -0.18894,-0.722711 -0.319733,-1.042592 -0.670848,-1.640617 -2.358171,-0.923635 -3.517077,-0.781921 -0.381244,0.04655 -0.823942,-0.02337 -1.172346,0.26066 -0.02949,0.02427 0.03177,0.11099 0,0.130286 -0.127127,0.07788 -0.285629,-0.02457 -0.426318,-5e-5 -0.422898,0.0736 -1.533659,0.589084 -1.811812,1.042562 -0.467475,0.762188 -0.09394,0.06853 -0.213163,0.651626 -0.10639,0.520704 -0.107343,0.002 -0.319725,0.521281 -0.03177,0.07758 0.02248,0.178246 0,0.26065 -0.308631,1.132167 -0.769077,2.381213 -0.639465,3.649006 0.04007,0.391414 0.394496,1.609586 0.746043,1.824503 0.418149,0.255737 0.956828,0.346536 1.385517,0.521331 0.04773,0.02009 0.05726,0.118201 0.106553,0.130285 0.128244,0.03163 1.463685,0.08245 1.598664,0 0.338361,-0.206861 0.535715,-1.704531 0.639474,-2.085153 -0.06426,-0.235845 0.17265,-0.242359 0.213147,-0.390966 0.02248,-0.08245 -0.03177,-0.18295 0,-0.26063 0.01596,-0.03879 0.08151,0.03123 0.106554,-4e-5 0.03714,-0.04545 -0.04423,-0.363932 0,-0.390966 0.06345,-0.03879 0.149615,-0.03879 0.213147,-7.9e-5 0.213163,0.130285 0.15987,0.26062 0.319741,0.390946 0.209628,0.170856 0.57266,0.309357 0.746043,0.52129 0.212414,0.259736 -0.164912,1.12625 -0.213164,1.303213 -0.04691,0.172029 0,0.466009 0,0.651616 0,0.221124 -0.177561,0.6083 -0.106553,0.781921 0.05425,0.132633 0.2332,0.207687 0.319749,0.26068 0.952333,0.582242 1.963806,-0.374017 2.238122,1.303213 0.157118,0.960545 0.106553,1.9932 0.106553,2.99741 0,0.217205 -0.152328,0.53986 0,0.651616 0.155358,0.113904 0.361037,0.06027 0.532888,0.130484 0.15074,0.06147 0.273543,0.207219 0.426319,0.26064 0.316792,0.110592 0.971383,-2e-5 1.278931,-2e-5 0.112296,2e-5 0.42693,-0.259874 0.53288,-0.130295 0.07005,0.08584 0.591223,1.054925 0.639474,1.172937 0.03177,0.07768 -0.05025,0.199193 0,0.26063 0.315994,0.386381 1.989821,0.09399 2.451269,-2e-5 0.799988,-0.163058 1.080225,0.184513 1.811827,0.390956 0.08454,0.02397 1.972358,0.228485 2.024975,0.26068 0.705212,0.431139 0.243699,1.79349 1.278939,2.215488 0.396606,0.161686 0.872625,0.03103 1.278932,0.130285 0.332699,0.08156 0.633544,0.42176 0.959206,0.521291 0.26082,0.07977 0.597715,-0.103957 0.852605,-9.9e-5 0.04773,0.02009 0.07094,0.08683 0.106553,0.130295 0.07111,0.04347 0.136055,0.106683 0.213164,0.130286 0.410916,0.12561 0.902549,-0.176516 1.278915,0.130285 0.534777,0.435942 -0.01279,1.256485 0.106553,1.694218 0.211102,0.774352 1.279159,1.694337 1.811827,2.085153 0.09634,0.07022 0.226261,0.0546 0.319725,0.130296 0.02965,0.02397 -0.02949,0.106295 0,0.130285 0.674286,0.549667 1.498611,0.370526 2.238146,0.52138 0.338149,0.06903 0.639393,0.312809 0.959182,0.390926 0.25116,0.06206 0.499461,0.055 0.746044,0.130286 0.71993,0.220169 1.525261,1.204844 1.70525,2.085163 0.05196,0.254185 0.114364,1.484571 0,1.694196 -0.388127,0.71189 -0.780831,1.476084 -1.27894,2.085138 -0.276898,0.3386 -0.606682,0.14043 -0.746035,0.65162 -0.101292,0.37174 -0.27241,1.5493 -0.106553,1.95483 0.06891,0.16852 0.201231,0.42011 0.106553,0.65162 -0.110544,0.27048 -0.394683,0.52842 -0.532896,0.78192 -0.150895,0.27685 0.238576,-0.0207 -0.106553,0.26065 -0.564573,0.46023 -1.231699,0.63721 -1.811828,1.04259 -0.456471,0.31895 -0.954401,0.9111 -1.492078,1.04258 -1.004746,0.24571 -0.925169,-0.41043 -1.70525,0.78192 -0.154397,0.23604 -0.259053,0.22452 -0.319725,0.52129 -0.05245,0.25687 -0.09443,1.80233 -0.106553,1.82452 -0.566185,1.03849 -1.287419,1.15099 -2.131561,1.56386 -0.35263,0.17241 -0.682235,0.44313 -1.065768,0.52131 -0.104639,0.0213 -0.514855,-0.0763 -0.639473,2e-5 -0.341171,0.20859 0.12808,0.0521 -0.213147,0.26063 -0.624194,0.38164 -1.046921,1.02415 -1.598665,1.56389 -0.0096,0.01 -1.770801,0.17047 -1.918397,0.26066 -0.486217,0.29726 -0.425194,1.30048 -0.639473,1.82448 -0.165915,0.40577 -0.280222,0.27189 -0.426311,0.39098 -0.06606,0.0538 -0.05042,0.19192 -0.106553,0.26064 -0.179142,0.21908 -0.53578,0.39273 -0.746035,0.52129 -0.11166,0.068 -0.409548,6e-5 -0.53288,-2e-5 -0.610412,4e-5 -1.060922,0.0176 -1.27894,-0.78192 -0.04129,-0.15155 -0.05009,-0.38331 -0.106545,-0.52131 -0.308549,-0.75457 -0.0033,-1.80499 0.106545,-2.60644 0.137342,-1.00739 0.0033,-2.10792 0.106554,-3.12773 0.02199,-0.21518 0.219589,-1.44141 0.319749,-1.56387 0.02501,-0.0306 0.08151,0.0312 0.106545,-4e-5 0.08518,-0.10416 0.08757,-1.83019 0.106553,-2.08517 0.03111,-0.41884 0.402242,-2.14401 0.213163,-2.60641 -0.114364,-0.27969 -0.116441,-0.006 -0.319733,-0.13068 -0.17976,-0.11 -0.262782,-0.37846 -0.426326,-0.52129 -0.339012,-0.29609 -0.720069,-0.63045 -1.065768,-0.91223 -0.269951,-0.22008 -0.593764,-0.28387 -0.852621,-0.52128 -0.15377,-0.14102 -0.265055,-0.38987 -0.426319,-0.5213 -0.06606,-0.0538 -0.16909,-0.0501 -0.213147,-0.13029 -0.03942,-0.0722 0.03177,-0.18295 0,-0.26064 -0.212332,-0.51929 -0.213269,-5.1e-4 -0.319724,-0.52128 -0.02582,-0.12639 0.07526,-0.298835 0,-0.390987 -0.273893,-0.334909 -0.797871,-0.714244 -1.065793,-1.172884 -0.261805,-0.448226 -0.341692,-1.096279 -0.532888,-1.563871 -0.172569,-0.422047 -0.97166,-1.218659 -1.065776,-1.563862 -0.02248,-0.08255 0,-0.17379 0,-0.260641 -0.03559,-0.130285 -0.06492,-0.263425 -0.106545,-0.390965 -0.125531,-0.383795 -0.213147,-0.616814 -0.213147,-1.042582 0,-0.157986 -0.06508,-0.752998 0,-0.912266 0.01596,-0.03879 0.08151,0.03123 0.106545,-6e-5 0.05025,-0.06127 -0.03177,-0.182951 0,-0.260641 0.15074,-0.368586 0.630596,-1.162055 0.852629,-1.433517 0.174931,-0.213943 0.758114,-0.435316 0.852605,-0.781961 0.223369,-0.819399 -0.377091,-2.987424 -0.106554,-3.649005 0.07835,-0.191535 0.70057,-0.167743 0.852629,-0.260661 0.117712,-0.07201 0.316141,-0.301161 0.426311,-0.390965 0.321516,-0.262093 0.319724,-0.289435 0.319724,-0.781922 0,-0.08703 0.05025,-0.199212 0,-0.26066 -0.0448,-0.0548 -0.387279,0.02377 -0.42631,-5e-5 -0.03177,-0.01949 0.03413,-0.11839 0,-0.130295 -0.114201,-0.04018 -2.187061,-0.198198 -2.238138,-0.260631 -0.02501,-0.03063 0.01596,-0.0915 0,-0.130295 -0.130956,-0.320238 -0.6066,-0.741749 -0.746043,-0.912247 -0.03828,-0.04685 -0.159341,-0.780598 -0.213147,-0.912256 -0.218262,-0.533793 -0.825653,-0.879275 -1.172354,-1.303232 -0.22051,-0.269632 0.336976,0.0099 -0.106545,-0.260641 -0.177513,-0.108443 -0.614322,-0.229777 -0.746043,-0.390955 -0.02501,-0.03064 0.02501,-0.09967 0,-0.130296 -0.09013,-0.110194 -0.523,-0.343482 -0.639474,-0.390936 -0.134784,-0.055 -0.291502,0.055 -0.426311,-5.9e-5 -0.236409,-0.09638 -0.549145,-0.691371 -0.639465,-0.912277 -0.108459,-0.265414 -0.313282,-0.122487 -0.426311,-0.26061 -0.02501,-0.03063 0.02501,-0.09967 0,-0.130296 -0.243609,-0.297889 -1.722346,0.377061 -2.024974,0.130296 -0.626955,-0.511096 -0.921145,-0.432859 -1.705242,-0.912257 -0.357852,-0.218757 -0.812401,-0.732717 -1.065776,-1.042581 -0.245923,-0.300694 -0.705669,-0.813501 -0.852621,-1.172907 -0.05123,-0.125024 0.03413,-0.396108 0,-0.521291 -0.01596,-0.05828 -0.07111,-0.08683 -0.106553,-0.130286 -0.03559,-0.08683 -0.08151,-0.168518 -0.106545,-0.26063 -0.02248,-0.08245 0.03177,-0.182951 0,-0.260641 -0.04496,-0.109806 -0.181374,-0.14413 -0.213147,-0.26067 -0.08438,-0.309675 0.126166,-0.23669 -0.106554,-0.521291 -0.02501,-0.03063 -0.08151,0.03063 -0.106545,4e-5 -0.02501,-0.03063 0.01979,-0.09419 0,-0.130295 -0.443447,-0.813362 -1.016164,-1.5699 -1.492086,-2.345844 -0.21568,-0.351628 0.0016,-0.213535 -0.213164,-0.651576 -0.25173,-0.513056 -0.174547,-0.008 -0.426294,-0.521301 -0.05775,-0.117773 -0.03926,-0.28106 -0.106553,-0.390986 -0.04765,-0.07758 -0.156954,-0.06177 -0.213163,-0.130205 -0.04496,-0.0549 -0.04814,-0.544376 -0.106545,-0.651616 -0.08789,-0.161149 -0.08741,-0.130216 -0.213164,-0.130216 -0.567879,4.9e-5 0.04643,1.258006 0.213164,1.563882 0.326998,0.599787 0.801128,1.891859 1.172345,2.345814 0.05612,0.06873 0.163528,0.0548 0.213156,0.130206 0.02916,0.04476 0.533498,1.302496 0.42631,1.433557 -0.210313,0.257169 -1.159452,-1.401988 -1.27894,-1.694178 -0.207388,-0.507237 -0.0081,-0.327697 -0.213147,-0.912236 -0.312581,-0.891887 -0.140045,0.09678 -0.319724,-0.781951 -0.02215,-0.107957 0.04032,-0.29226 0,-0.390966 -0.06744,-0.164928 -0.229307,-0.243513 -0.319749,-0.390976 -0.108622,-0.177122 -0.12984,-0.498653 -0.213147,-0.651606 -0.417303,-0.765401 -1.044697,-1.381966 -1.385518,-2.215488 -0.09044,-0.221274 -0.117557,-0.547967 -0.213147,-0.781932 -0.102399,-0.250435 -0.323911,-0.40118 -0.42631,-0.651606 -0.05091,-0.124477 -0.0716,-0.544814 -0.106553,-0.651596 -0.07909,-0.241613 -0.231523,-0.435913 -0.319725,-0.651616 -0.0426,-0.104366 0.0426,-0.286729 0,-0.390956 -0.01596,-0.03869 -0.08151,0.03063 -0.106553,4e-5 -0.19702,-0.240937 -0.251225,-0.698134 -0.426311,-0.912247 -0.05612,-0.06873 -0.156954,-0.06177 -0.213147,-0.130205 -0.01914,-0.02367 0,-1.527539 0,-1.694198 0,-0.439573 0.143874,-0.749636 0.213147,-1.172907 0.07241,-0.442795 -0.01613,-0.592426 0.106545,-1.042562 0.09587,-0.351877 -0.09586,-0.82103 0,-1.172907 -0.06426,-0.235874 0.17265,-0.242369 0.213156,-0.390956 0.09697,-0.355527 0.418719,-1.577817 0.213163,-1.954828 -0.144199,-0.26446 -0.465838,-0.699954 -0.639466,-0.912266 -0.02501,-0.03073 -0.08151,0.03063 -0.106545,4e-5 -0.195171,-0.23867 -0.123299,-0.56223 -0.213163,-0.781952 -0.08167,-0.19958 -0.189926,-0.102008 -0.319733,-0.26067 -0.03559,-0.04356 -0.07094,-0.347531 -0.106545,-0.390976 -0.08885,-0.108672 -0.230919,-0.151998 -0.319733,-0.26066 -0.0215,-0.02626 -0.0215,-0.625199 0,-0.651616 0.08885,-0.108603 0.23092,-0.151938 0.319733,-0.26065 0.127445,-0.155857 0.298898,-0.626164 0.426311,-0.781952 0.07941,-0.09717 0.366094,-0.187048 0.42631,-0.26064 0.0065,-0.008 0.401615,-1.082297 0.42631,-1.172897 0.02248,-0.08255 -0.03177,-0.18297 0,-0.26063 0.01597,-0.03889 0.09076,0.03909 0.106554,-4e-5 0.03177,-0.07758 -0.03177,-0.182971 0,-0.260661 0.01596,-0.03889 0.08151,0.03123 0.106545,-3.9e-5 0.07159,-0.08753 0.352923,-0.578273 0.53288,-0.651587 0.06744,-0.02775 0.149615,0.03809 0.213163,-6.9e-5 0.07094,-0.04376 0.03559,-0.217235 0.106545,-0.260651 0.159528,-0.09747 0.536407,-0.332243 0.639466,-0.52129 0.154714,-0.283627 0.427524,-1.000122 0.639457,-1.172888 0.05913,-0.04814 0.149616,0.03809 0.213164,-7.9e-5 0.100485,-0.06147 0.02712,-0.293831 0.106553,-0.390976 0.271351,-0.331815 0.775862,-0.724551 0.959182,-1.172887 0.08773,-0.214679 0.272231,-0.59354 0.426318,-0.781951 0.225732,-0.276007 0.676347,-0.739332 0.959199,-0.912256 0.179769,-0.110065 0.330851,-0.07529 0.532896,-0.260641 0.353592,-0.324256 0.513023,-0.861451 0.852621,-1.172897 0.618167,-0.566894 0.880143,-0.749715 1.598664,-1.042572 0.171787,-0.07002 0.261895,-0.420774 0.426294,-0.52129 0.103524,-0.06326 0.322747,-0.06714 0.426327,-0.130296 0.238543,-0.145891 0.264094,-0.356949 0.53288,-0.521271 0.09539,-0.05819 0.218621,0.04128 0.319733,9e-5 0.450363,-0.183538 1.212834,-0.552651 1.492095,0.130385 0.0823,0.20147 0.0676,0.982327 0.106553,1.172926 z"
       id="path870"
       inkscape:export-xdpi="15.29"
       inkscape:export-ydpi="15.29"
       inkscape:export-filename="/Users/josephkranak/Documents/GitHub/Codeworks/Projects/tutorworld/client/public/logo.png" />
    <path
       id="path872"
       style="fill:#ffffff;fill-opacity:1;stroke:#f082ac;stroke-width:0.264584px;stroke-linecap:butt;stroke-linejoin:miter;stroke-opacity:1"
       d="m 86.934524,46.552687 c -0.567081,0.0735 -0.737735,0.38276 -0.737735,1.155273 0,0.130285 -0.04765,0.274475 0,0.391055 0.01596,0.03869 0.08137,-0.02984 0.10639,7.26e-4 0.08725,0.106584 -0.0095,0.639482 0.10639,0.781901 0.05612,0.06843 0.157273,0.06107 0.213481,0.129709 0.16677,0.204076 0.225862,0.55282 0.319815,0.782538 0.06858,0.167494 0.410615,0.601338 0.532472,0.651039 0.06744,0.02825 0.146114,-0.02874 0.213506,-3.88e-4 0.222253,0.09061 0.575332,0.93749 0.639628,1.173036 0.018,0.06614 0.04708,0.854818 0,0.912158 -0.07941,0.09698 -0.240392,0.03342 -0.319822,0.130683 -0.02509,0.03073 0.02509,0.09936 0,0.130086 -0.160701,0.196518 -0.950141,-0.379617 -1.065784,-0.521072 -0.517388,-0.632648 -0.683278,-1.513823 -1.065776,-2.215359 -0.0716,-0.131499 -0.148175,-0.571967 -0.213498,-0.651775 -0.0303,-0.037 -0.418157,-0.370009 -0.426131,-0.391234 -0.25968,-0.635066 0.391539,-2.214703 -0.852295,-2.214703 -0.177635,-7e-5 -0.374435,-0.09638 -0.533303,-1.1e-4 -0.801601,0.49008 -0.05628,1.590041 0.213481,2.085024 0.04406,0.08086 0.04431,0.200317 0.10639,0.26082 0.160734,0.15714 0.521762,0.304613 0.639637,0.520913 0.08151,0.149621 0.164496,0.866116 0.212666,1.042681 0.04643,0.17013 0.377872,0.807712 0.218433,1.0318 0.107343,0.02904 0.214133,0.06763 0.314862,0.141425 0.851139,0.624453 0.44199,0.838058 0.639637,1.563107 0.02916,0.10714 0.282176,0.721359 0.319822,0.782538 0.362348,0.590894 0.08167,-0.45117 0.42614,0.391234 0.156946,0.383904 -0.04578,1.19077 0.10639,1.563017 0.08389,0.205131 0.10639,0.148736 0.10639,0.391841 0,0.260571 0.03576,0.04376 -0.10639,0.130166 -0.687285,0.420307 -1.406588,-1.008844 -2.025235,-2.09e-4 -0.251013,0.409178 -0.0973,3.706068 0,4.300762 0.04292,0.262331 0.175778,0.475339 0.319814,0.651526 0.08137,0.09946 0.846195,2.79e-4 0.959459,2.39e-4 0.400996,6e-5 1.379034,0.01174 1.598249,-0.391174 0.243341,-0.446217 0.467508,-1.282942 0.319823,-1.824921 -0.03959,-0.144857 -0.191995,-0.311237 -0.106391,-0.520844 0.206574,-0.505168 0.720183,-0.63041 1.065785,-0.912157 0.09858,-0.07997 0.08327,-0.376782 0.10639,-0.391313 0.27601,-0.169295 1.066957,4.9e-5 1.279273,0.260222 0.05612,0.06863 0.05026,0.192231 0.106391,0.26081 0.02501,0.03054 0.07086,-3.38e-4 0.10639,-2.69e-4 0.07094,0.04337 0.157272,0.06197 0.213481,0.130674 0.05343,0.06535 0.143556,0.305239 0.213481,0.390727 0.07941,0.09807 0.240376,0.03431 0.319814,0.130394 0.219207,0.268031 0.478675,0.716456 0.638822,1.042811 0.244489,0.498305 0.32212,1.046928 0.533288,1.563365 0.251444,0.614925 1.048036,2.075128 1.491939,2.34655 0.06345,0.03869 0.149934,-0.03929 0.213481,-1.99e-4 0.178157,0.109011 0.525403,0.390638 0.638806,0.390727 -0.03543,-0.173432 -0.07094,-0.347341 -0.10639,-0.520843 -0.03543,1.69e-4 -0.08137,0.03103 -0.10639,2.68e-4 -0.149298,-0.182552 -0.1402,-0.948898 -0.213481,-1.172867 -0.265626,-0.812028 -0.672013,-1.55698 -0.958612,-2.345465 -0.303142,-0.83406 -0.253237,-1.818794 -0.639637,-2.606286 -0.234072,-0.47707 -0.579323,-0.858527 -0.852303,-1.30356 -0.387043,-0.631057 -0.8272,-1.408861 -1.172932,-2.085263 -0.413881,-0.809751 -0.446274,-1.87311 -0.745954,-2.606036 -0.06076,-0.148656 -0.1056,-0.248775 -0.145951,-0.335884 -0.04048,-9.35e-4 -0.08262,-0.006 -0.127762,-0.01979 -0.04545,0.203221 -0.135102,0.275252 -0.356915,-0.06724 -0.100485,-0.15547 -0.188012,-0.321909 -0.277778,-0.486221 -0.715369,-0.9559 -0.710393,-0.87822 -1.359217,-2.201037 -0.03234,-0.06604 -0.05824,-0.135437 -0.0874,-0.20336 -0.0096,-0.0177 -0.02061,-0.03392 -0.02965,-0.05182 -0.120269,-0.197571 -0.238095,-0.396873 -0.36102,-0.591879 -0.07208,-0.08753 -0.11469,-0.155011 -0.157435,-0.222347 -0.09522,-0.110264 -0.201826,-0.211258 -0.25634,-0.350584 -0.05123,-0.130803 -0.101292,-0.268747 -0.152491,-0.404811 z m -1.692234,5.184682 c -0.146586,-0.04138 -0.294157,-0.06316 -0.4311,-0.118897 -0.09762,-0.04058 -0.261349,-0.129301 -0.40471,-0.202147 0.06508,0.362579 0.214866,0.577765 0.617385,0.331666 0.06345,-0.03879 0.163234,0.06216 0.213481,5.67e-4 0.0033,-0.003 0.0033,-0.007 0.0049,-0.01074 z m -0.83581,-0.321422 c -0.08055,-0.448156 -0.02859,-1.125464 -0.128561,-1.49222 -0.09012,-0.330622 -0.338678,-0.545043 -0.53248,-0.782041 -0.08885,-0.108483 -0.287047,-0.215196 -0.42614,-0.130116 -0.479276,0.293005 -0.244359,1.538171 0.106391,1.824075 0.201377,0.164152 0.616187,0.395273 0.980888,0.580391 z m 2.767076,-4.716076 c -0.01735,-0.01154 -0.03128,-0.0185 -0.02965,-5.66e-4 0.0033,0.02894 0.03274,0.04864 0.06011,0.05629 0.0016,-0.01154 0.0033,-0.02099 0.0049,-0.03113 -0.01116,-0.008 -0.02313,-0.01482 -0.03462,-0.02307 z"
       inkscape:export-xdpi="15.29"
       inkscape:export-ydpi="15.29"
       inkscape:export-filename="/Users/josephkranak/Documents/GitHub/Codeworks/Projects/tutorworld/client/public/logo.png" />
    <path
       style="fill:#ffffff;fill-opacity:1;stroke:#f082ac;stroke-width:0.264584px;stroke-linecap:butt;stroke-linejoin:miter;stroke-opacity:1"
       d="m 59.882665,33.559077 c 0.151848,0.008 2.657623,-0.209557 3.517053,0.390976 0.06891,0.04824 0.06255,0.179847 0.106553,0.26063 0.424494,0.778599 -0.119308,1.517076 0.106553,2.345794 0.02167,0.07957 0.191465,0.311456 0.213147,0.390986 0.06044,0.22175 0.05962,0.421978 0.106545,0.651606 0.12378,0.605127 0.41156,1.429937 0.959207,1.563852 0.08137,0.0195 0.338996,-0.05351 0.426311,5e-5 0.246517,0.150665 0.28352,0.823725 0.42631,1.172917 0.209645,0.512697 0.941312,0.629724 1.172354,0.912256 0.434643,0.531496 0.1568,1.517941 0.852621,2.085144 0.839833,0.684637 1.655101,0.105708 2.238129,0.390896 0.508356,0.248675 0.288627,0.251221 0.746036,0.390966 0.38328,0.117156 1.326262,0.07261 1.598664,-0.260631 0.173082,-0.211655 -0.229543,-2.977368 0.319749,-3.649036 0.02826,-0.03451 0.275831,-1e-5 0.319733,9e-5 0.209604,-6e-5 0.761624,0.120737 0.959182,-1e-5 0.154723,-0.09459 0.229771,-0.200566 0.426319,-0.260641 0.10942,-0.03352 0.344306,-0.03014 0.42631,-0.130285 0.255729,-0.312709 0.106545,-1.394757 0.106545,-1.824513 0,-0.934407 0.450908,-0.02974 0.746043,-0.390956 0.05025,-0.06137 -0.03177,-0.18297 0,-0.26066 0.06044,-0.14788 0.162013,-0.187626 0.106554,-0.390966 -0.07437,-0.272775 -0.540952,-0.656549 -0.746044,-0.781921 -0.285581,-0.174506 -0.74957,-0.163566 -1.065784,-0.260621 -0.741384,-0.226744 -1.417902,-0.693509 -2.13156,-1.042562 -1.072838,-0.524742 0.226293,0.10185 -0.53288,-0.130504 -0.47198,-0.14429 -0.904815,-0.504661 -1.385517,-0.651606 -0.103361,-0.03203 -0.216332,0.03153 -0.319725,-8.9e-5 -0.434675,-0.132534 -0.844264,-0.38842 -1.27894,-0.521291 -0.565794,-0.173094 -1.135155,-0.250605 -1.705225,-0.391075 -0.25362,-0.06246 -0.492448,-0.198616 -0.74606,-0.260521 -0.888141,-0.217236 -1.882868,0.217215 -2.771018,9e-6 -0.629121,-0.153201 -1.42726,-0.243562 -2.024974,0 -0.101129,0.04118 -0.244359,-0.0921 -0.319733,-8.9e-5 -0.02501,0.03073 0.03177,0.111 0,0.130285 -0.06744,0.04148 -0.357852,-0.06743 -0.42631,-4.9e-5 -0.156955,0.153599 -0.284205,0.34751 -0.426311,0.521281 z"
       id="path874"
       inkscape:export-xdpi="15.29"
       inkscape:export-ydpi="15.29"
       inkscape:export-filename="/Users/josephkranak/Documents/GitHub/Codeworks/Projects/tutorworld/client/public/logo.png" />
    <path
       style="fill:#ffffff;fill-opacity:1;stroke:#f082ac;stroke-width:0.264584px;stroke-linecap:butt;stroke-linejoin:miter;stroke-opacity:1"
       d="m 93.134898,66.387143 c -0.423216,-0.850839 -1.700811,-1.672545 -1.918389,-2.73676 -0.05172,-0.252863 0.05164,-0.529069 0,-0.781941 -0.01279,-0.05968 -0.09076,-0.07201 -0.106553,-0.130256 -0.03413,-0.125153 0.05123,-0.396207 0,-0.521281 -0.352158,-0.861252 -0.691521,-0.781941 -1.492087,-0.781941 -0.395408,-2e-5 -1.382023,0.867389 -1.811827,1.042562 -0.349935,0.142579 -0.980433,-0.104306 -1.278915,0.26066 -0.02509,0.03073 0.01596,0.09141 0,0.130286 -0.08167,0.19961 -0.189942,0.102008 -0.31975,0.26066 -0.09602,0.117395 -0.448065,1.095784 -0.532871,1.303202 -0.129523,0.316678 -0.484214,0.461793 -0.639474,0.651616 -0.06174,0.07539 -0.151375,0.44576 -0.213155,0.521301 -0.197786,0.241862 -0.702126,0.364091 -0.959199,0.521281 -0.40089,0.245104 -0.615804,1.520467 -0.852628,1.954848 -0.111489,0.204454 -0.362763,0.288152 -0.426311,0.521271 -0.106545,0.390966 0.106554,0.912276 0,1.303222 -0.09762,0.358302 -0.512299,0.340618 -0.63946,0.651616 -0.337708,0.825884 0.764177,2.148969 0.532883,2.99742 -0.09108,0.334103 -0.293386,0.7175 -0.426297,1.042602 -0.0973,0.238062 -0.06712,1.317455 0,1.563862 0.196303,0.720126 0.727158,1.245465 0.959185,1.954819 0.02631,0.08076 -0.03177,0.18295 0,0.26063 0.01596,0.03879 0.07119,-2.48e-4 0.106552,-4e-5 0.03559,0.04346 0.09076,0.07201 0.106553,0.130296 0.10591,0.388369 0.168325,0.672324 0.319725,1.042601 0.09236,0.22574 -0.03877,0.385028 0.106553,0.651597 0.49705,0.911679 2.180252,1.448417 2.984165,1.694177 0.311979,0.09538 0.922375,0.608977 1.278932,0.391016 0.172397,-0.105122 0.159504,-0.390608 0.319732,-0.521291 0.174565,-0.14238 0.626059,-0.244249 0.746044,-0.390956 0.025,-0.03063 -0.03177,-0.110791 0,-0.130295 0.159186,-0.09727 0.47786,-0.03163 0.639474,-0.130286 0.265413,-0.162272 0.0694,-0.390965 0.42631,-0.390985 0.07673,9.35e-4 0.732262,-0.0735 0.852621,-9e-5 0.200213,0.122289 0.17796,0.478244 0.319733,0.651597 0.02501,0.03063 0.09076,-0.03879 0.106545,-4e-5 0.03176,0.07778 -0.03177,0.18295 0,0.26065 0.04944,0.120926 0.246281,0.04138 0.319733,0.130296 0.06459,0.07897 0.382335,0.570962 0.42631,0.651616 0.03177,0.05828 0,0.318249 0,0.390955 0,0.195046 0.09156,0.930647 0,1.042582 -0.240311,0.293851 -0.886643,0.787451 -0.746043,1.303232 0.236458,0.867399 1.145719,1.531229 0.852629,2.606434 -0.100176,0.367303 -0.592999,0.668275 -0.74606,1.042581 -0.299859,0.733334 -0.206338,1.391863 -0.319733,2.085174 -0.124415,0.761133 -0.42631,1.375501 -0.42631,2.085143 0,1.103224 -0.125051,1.348448 -0.532896,2.345794 -0.113086,0.276724 0,1.039339 0,1.303232 0,0.104157 -0.170972,1.753237 0.319749,1.303242 1.098739,-1.00767 2.092717,-2.677152 2.451285,-4.430957 0.100811,-0.493223 0.10942,-1.056745 0.213147,-1.563893 0.102888,-0.503268 0.34363,-1.058336 0.426319,-1.563842 0.220404,-1.347513 0.350814,-2.812769 0.85262,-4.040021 0.06744,-0.164998 0.175933,-1.512102 0.213164,-1.694178 0.144826,-0.708647 0.237867,-1.524237 0.42631,-2.215478 0.305007,-1.118919 0.133505,-9.95e-4 0.319733,-0.912257 0.06972,-0.340757 0.02533,-0.669927 0.106545,-1.042582 0.237647,-1.089697 0.492684,-2.173645 0.74606,-3.25804 0.101927,-0.436102 0.263328,-0.854976 0.319724,-1.303242 0.229552,-1.824463 0.100811,-3.68157 -0.213163,-5.473539 -0.142758,-0.814436 -0.487146,-1.476824 -0.746035,-2.215449 -0.124896,-0.356134 -0.200677,-1.027334 -0.426311,-1.303242 -0.02509,-0.03054 -0.08151,0.03063 -0.106553,4e-5 -0.150731,-0.184234 0.05856,-0.531317 0,-0.781922 -0.09443,-0.404383 -0.446966,-0.85973 -0.746059,-1.042591 -1.208754,-0.738994 -0.379078,1.115129 -0.639458,1.433547 -0.12808,0.156693 -0.357151,-0.07668 -0.532912,-0.130504 z"
       id="path876"
       inkscape:export-xdpi="15.29"
       inkscape:export-ydpi="15.29"
       inkscape:export-filename="/Users/josephkranak/Documents/GitHub/Codeworks/Projects/tutorworld/client/public/logo.png" />
    <path
       style="fill:#ffffff;fill-opacity:1;stroke:#f082ac;stroke-width:0.264584px;stroke-linecap:butt;stroke-linejoin:miter;stroke-opacity:1"
       d="m 80.345583,41.581213 c -1.544639,1e-5 -2.88219,-0.913808 -4.47626,-0.912276 -0.284212,0.130245 -0.619445,0.153301 -0.852629,0.390995 -0.07787,0.07917 1.38072,0.793807 1.598664,0.912237 0.361256,0.196278 0.886952,0.432939 1.172354,0.781921 0.06158,0.07529 0.04512,1.145277 0.639482,0.781951 0.965136,-0.590078 -0.778233,0.0099 1.385493,-0.651596 0.604279,-0.184701 0.78667,0.1425 0.959206,-0.912256 0.0619,-0.378633 -0.08805,-0.287585 -0.42631,-0.390976 z"
       id="path884"
       inkscape:export-xdpi="15.29"
       inkscape:export-ydpi="15.29"
       inkscape:export-filename="/Users/josephkranak/Documents/GitHub/Codeworks/Projects/tutorworld/client/public/logo.png" />
    <path
       style="fill:#ffffff;fill-opacity:1;stroke:#577184;stroke-width:1;stroke-linecap:butt;stroke-linejoin:miter;stroke-miterlimit:4;stroke-dasharray:none;stroke-opacity:1"
       d="m 26.759277,27.457234 1.23145,32.135521 c 21.306636,8.116157 43.549801,7.756134 66.498289,-0.29214 l 0.923588,-31.843381"
       id="path853"
       sodipodi:nodetypes="cccc"
       inkscape:export-filename="/Users/josephkranak/Documents/GitHub/Codeworks/Projects/tutorworld/client/public/logo.png"
       inkscape:export-xdpi="15.29"
       inkscape:export-ydpi="15.29" />
    <rect
       style="fill:#577184;fill-opacity:1;stroke:#577184;stroke-width:1.31813;stroke-opacity:1"
       id="rect833"
       width="52.712147"
       height="52.712147"
       x="59.181255"
       y="-4.1977267"
       transform="matrix(0.95335054,0.30186545,-0.95335054,0.30186545,0,0)"
       inkscape:export-filename="/Users/josephkranak/Documents/GitHub/Codeworks/Projects/tutorworld/client/public/logo.png"
       inkscape:export-xdpi="15.29"
       inkscape:export-ydpi="15.29" />
    <rect
       style="fill:#f082ac;fill-opacity:1;stroke:#ffffff;stroke-width:1.32703;stroke-miterlimit:4;stroke-dasharray:none;stroke-opacity:1"
       id="rect2868"
       width="50.815861"
       height="50.815861"
       x="60.697128"
       y="-2.6529436"
       transform="matrix(0.95476302,0.29736776,-0.95476302,0.29736776,0,0)"
       inkscape:export-filename="/Users/josephkranak/Documents/GitHub/Codeworks/Projects/tutorworld/client/public/logo.png"
       inkscape:export-xdpi="15.29"
       inkscape:export-ydpi="15.29" />
    <path
       style="fill:#ffffff;fill-opacity:1;stroke:#f082ac;stroke-width:0.264584px;stroke-linecap:butt;stroke-linejoin:miter;stroke-opacity:1"
       d="m 56.152457,79.217347 c -0.761975,0.08345 -1.674193,-0.222686 -2.131561,-0.781952 -0.292259,-0.357377 -1.136939,-0.651596 -1.492094,-0.651596 -0.151376,-5.9e-5 -0.712225,0.171642 -0.426311,0.521291 0.05025,0.06147 0.162917,-0.06147 0.213164,-6e-5 0.02501,0.03064 -0.02501,0.09967 0,0.130286 0.09618,0.117614 0.40589,0.18295 0.532896,0.260601 0.0898,0.055 0.117875,0.22178 0.213147,0.26063 0.06744,0.02825 0.149616,-0.03879 0.213163,-6e-5 0.03177,0.01761 -0.02509,0.09967 0,0.130296 0.120742,0.147641 0.489125,0.299132 0.639458,0.390936 0.06345,0.03879 0.162916,-0.06147 0.213163,-5e-5 0.08677,0.106096 0.202143,0.322436 0.426311,0.390956 0.387743,0.118588 0.732848,0.187436 1.065768,0.391085 0.08981,0.055 0.123299,0.205628 0.213155,0.26063 0.225715,0.138093 0.520157,0.244995 0.639474,0.390966 0.03665,0.04486 0.06044,0.440209 0.319724,0.651616 0.285231,0.232552 0.589684,-0.03044 0.852629,0.130484 0.03177,0.0195 -0.02509,0.09966 0,0.130286 0.01645,0.01949 0.864627,0.593788 0.959199,0.651596 0.163047,0.09967 0.313339,-0.06127 0.426302,-0.130286 0.332675,-0.20341 1.218178,0 1.598672,0 0.195285,-2e-5 1.502936,-0.01363 1.598665,-0.130285 0.0215,-0.02656 0.0215,-0.625209 0,-0.651616 -0.03559,-0.04346 -0.284205,-0.08683 -0.319741,-0.130485 -0.02501,-0.03063 0.02517,-0.09967 0,-0.130295 -0.06907,-0.08444 -1.292876,-0.309765 -1.492087,-0.390936 -0.793969,-0.32352 -1.340548,-0.912256 -2.131552,-0.912256 -0.1485,-2e-5 -1.134691,-0.344895 -1.172354,-0.391036 -0.02501,-0.03063 0.02501,-0.09967 0,-0.130295 -0.05025,-0.06147 -0.162917,0.06147 -0.213147,6e-5 -0.02509,-0.03064 0.03177,-0.110781 0,-0.130286 -0.224697,-0.137307 -0.502352,-0.0558 -0.746043,-0.130285 z"
       id="path880"
       inkscape:export-xdpi="15.29"
       inkscape:export-ydpi="15.29"
       inkscape:export-filename="/Users/josephkranak/Documents/GitHub/Codeworks/Projects/tutorworld/client/public/logo.png" />
    <path
       style="fill:none;stroke:#f082ac;stroke-width:0.264583px;stroke-linecap:butt;stroke-linejoin:miter;stroke-opacity:1"
       d="m 26.747803,79.948848 c 1.956116,15.357486 7.685386,24.630162 16.711884,31.172952"
       id="path857"
       sodipodi:nodetypes="cc"
       inkscape:export-filename="/Users/josephkranak/Documents/GitHub/Codeworks/Projects/tutorworld/client/public/logo.png"
       inkscape:export-xdpi="15.29"
       inkscape:export-ydpi="15.29" />
  </g>
</svg>
