<?xml version="1.0" encoding="UTF-8" standalone="no"?>
<svg
   xmlns:dc="http://purl.org/dc/elements/1.1/"
   xmlns:cc="http://creativecommons.org/ns#"
   xmlns:rdf="http://www.w3.org/1999/02/22-rdf-syntax-ns#"
   xmlns:svg="http://www.w3.org/2000/svg"
   xmlns="http://www.w3.org/2000/svg"
   xmlns:sodipodi="http://sodipodi.sourceforge.net/DTD/sodipodi-0.dtd"
   xmlns:inkscape="http://www.inkscape.org/namespaces/inkscape"
   width="60mm"
   height="75mm"
   viewBox="0 0 60 75"
   version="1.1"
   id="svg8"
   inkscape:version="1.0.1 (c497b03c, 2020-09-10)"
   sodipodi:docname="tutor_world.svg">
  <defs
     id="defs2" />
  <sodipodi:namedview
     id="base"
     pagecolor="#ffffff"
     bordercolor="#666666"
     borderopacity="1.0"
     inkscape:pageopacity="0.0"
     inkscape:pageshadow="2"
     inkscape:zoom="1.979899"
     inkscape:cx="215.14992"
     inkscape:cy="165.05473"
     inkscape:document-units="mm"
     inkscape:current-layer="layer1"
     inkscape:document-rotation="0"
     showgrid="false"
     inkscape:window-width="1576"
     inkscape:window-height="997"
     inkscape:window-x="1985"
     inkscape:window-y="25"
     inkscape:window-maximized="0" />
  <metadata
     id="metadata5">
    <rdf:RDF>
      <cc:Work
         rdf:about="">
        <dc:format>image/svg+xml</dc:format>
        <dc:type
           rdf:resource="http://purl.org/dc/dcmitype/StillImage" />
        <dc:title></dc:title>
      </cc:Work>
    </rdf:RDF>
  </metadata>
  <g
     inkscape:label="Layer 1"
     inkscape:groupmode="layer"
     id="layer1">
    <rect
       style="fill:none;stroke:#000000;stroke-width:1.51153;stroke-linejoin:round;stroke-miterlimit:4;stroke-dasharray:none;stroke-dashoffset:0;stroke-opacity:0.765182"
       id="rect835"
       width="57.571537"
       height="62.584698"
       x="1.9830778"
       y="12.080675"
       transform="matrix(0.98480775,-0.17364818,0,1,0,0)"
       inkscape:export-xdpi="351.84"
       inkscape:export-ydpi="351.84" />
    <path
       style="fill:none;stroke:#000000;stroke-width:0.264583px;stroke-linecap:butt;stroke-linejoin:miter;stroke-opacity:1"
       d="m 18.909313,23.961604 c 0.46086,0.13745 0.68942,-0.28691 1.06908,-0.52259 0.1739,-0.10797 0.44944,-0.10945 0.53454,-0.29471 0.22308,-0.48549 -1.40316,-0.4038 -1.40316,-0.82166 0,-0.32534 1.73784,-1.79267 1.9377,-1.67802 0.11409,0.0655 0.23325,0.1253 0.33409,0.20836 0.0882,0.0726 0.37773,0.55793 0.60135,0.29488 0.0438,-0.0515 0.008,-0.43009 0.26727,-0.64849 0.1976,-0.16657 0.95117,-0.071 1.1359,-0.0667 0.20379,0.005 0.91955,-0.13494 1.06908,-0.18851 0.079,-0.0283 0.1351,-0.11082 0.20045,-0.16897 0.0906,-0.0807 0.22591,-0.13684 0.26727,-0.24758 0.14679,-0.39287 -1.04278,0.36898 -0.46772,-0.65252 0.0426,-0.0756 0.14367,-0.10213 0.20045,-0.16898 0.0352,-0.0414 0.027,-0.10851 0.0668,-0.14541 0.30606,-0.28352 2.44339,-0.975 2.87314,-0.90752 0.36718,0.0576 0.24699,1.02016 0,1.26953 -0.22955,0.23177 -0.52597,0.37872 -0.80181,0.54229 -0.20437,0.12123 -1.06914,0.46755 -0.20045,0.56988 0.14199,0.0168 0.93127,-0.0181 1.20272,-0.0116 0.67795,0.016 0.46842,0.0208 1.06908,0.0788 0.92175,0.0889 1.36344,0.0883 1.67043,1.10862 0.0297,0.0989 0.19379,0.44687 0.13363,0.5778 -0.16291,0.35455 -0.88405,0.48225 -1.13589,0.40073 -0.0361,-0.0116 -0.17733,-0.12549 -0.20045,-0.0983 -0.13545,0.15932 0.79653,0.93038 0.4009,1.13202 -0.18987,0.0968 -0.33706,0.0303 -0.46772,-0.0512 -0.28355,-0.17684 -1.65768,-0.34435 -2.00452,-0.31473 -0.28492,0.0243 -0.90389,0.19098 -1.1359,-1.6e-4 -0.3244,-0.2672 -0.25391,-0.66883 0,-1.06908 0.0271,-0.0428 0.39536,-0.3184 0.26727,-0.38121 -0.0556,-0.0273 -0.13363,0.0236 -0.20045,0.0353 -0.13363,0.0236 -0.26727,0.0471 -0.40091,0.0707 -0.54358,0.0958 -0.9775,0.35219 -1.40316,0.78196 -0.22799,0.23019 -0.27575,0.52059 -0.53454,0.69561 -0.30068,0.20336 -0.62313,0.28104 -0.93544,0.43221 -0.72438,0.35061 -0.23073,0.15344 -0.73499,0.5305 -0.23609,0.17654 -0.57885,0.23557 -0.80181,0.40865 -0.47435,0.36825 -0.95801,1.01675 -1.06908,1.59168 -0.0308,0.15955 -0.0554,0.6731 0,0.80181 0.20257,0.47069 1.6505,0.10655 2.07134,0.10249 0.15994,-0.002 0.30778,0.0527 0.46772,0.0512 0.34243,-0.003 0.66859,-0.0287 1.00226,0.0237 0.0668,0.0105 0.15065,-0.01 0.20045,0.0315 0.11771,0.0969 0.23495,0.59876 0.26727,0.75468 0.0723,0.3489 -0.33433,0.54874 0.20046,0.90009 0.18535,0.12179 0.35409,0.17924 0.60135,0.0944 0.26642,-0.0914 0.2541,-0.6349 0.26727,-0.78212 0.0539,-0.6023 0.006,-1.21952 -0.0668,-1.79229 -0.0343,-0.26866 -0.16214,-0.50504 -0.20045,-0.76647 -0.0315,-0.21493 0,-0.44545 0,-0.66817 0,-0.0693 -0.0886,-0.70845 -0.0668,-0.72322 0.35081,-0.23725 0.69787,-0.28225 1.06908,-0.38895 0.51986,-0.14947 1.06638,-0.36802 1.5368,-0.13734 0.0524,0.0257 0.0796,0.0872 0.13364,0.11006 0.0604,0.0256 0.1441,-8.1e-4 0.20045,0.0315 0.0626,0.036 0.15596,0.23985 0.20045,0.29873 0.17865,0.23647 0.38646,0.32555 0.66818,0.41672 0.98263,0.31806 0.44432,-0.54606 0.86862,-0.62088 0.0838,-0.0148 0.46772,-0.0399 0.46772,-0.0157 0,0.1999 -0.10115,0.0809 -0.0668,0.21223 0.13706,0.52406 0.50688,1.15019 1.00226,1.36007 0.2214,0.0938 0.55993,-0.0255 0.80181,-0.008 0.14721,0.0109 0.27028,0.1543 0.40091,0.19658 0.37039,0.11988 0.46772,0.14358 0.46772,0.5857 0,0.0891 0.0216,0.17703 0,0.26727 -0.0807,0.33689 -0.0318,0.003 -0.13363,0.22401 -0.21615,0.4704 -0.66566,0.3731 -1.1359,0.53438 -0.18012,0.0618 -0.35692,0.15214 -0.53454,0.22789 -0.33636,0.14341 -0.71983,0.11612 -1.06908,0.2553 -0.009,0.004 -0.52795,0.1533 -0.53454,0.16106 -0.0746,0.0877 -0.0668,0.1871 -0.0668,0.34586 0,0.72285 0.55583,0.34549 0.73499,0.67221 0.0897,0.16351 -0.0408,0.33017 0.20045,0.43238 0.20262,0.0858 0.6427,-10e-4 0.86862,-0.0864 0.0349,-0.0131 0.33913,-0.25522 0.40091,-0.20432 0.0803,0.0661 -0.0105,0.23733 -0.0668,0.34586 -0.10024,0.19311 -0.25524,0.26257 -0.4009,0.40478 -0.53432,0.52167 -0.93232,0.31076 -1.5368,0.53825 -0.29722,0.11181 -0.5315,0.29265 -0.80181,0.47547 -0.10874,0.0736 -0.49782,0.20509 -0.53454,0.22788 -0.26323,0.16342 -1.12431,0.70962 -1.26953,1.02567 -0.0974,0.21206 -0.12644,0.68327 -0.26727,0.84893 -0.15394,0.1811 -0.49398,0.0728 -0.60135,0.30649 -0.065,0.14146 -0.308,0.80551 -0.33409,0.92754 -0.006,0.0263 -0.11135,0.86597 -0.13364,0.89218 -0.0505,0.0594 -0.54007,0.53844 -0.60135,0.57376 -0.35894,0.20687 -0.27753,0.10034 -0.60136,0.3733 -0.16906,0.14252 -0.27155,0.51989 -0.4009,0.67205 -0.0158,0.0185 -0.0511,-0.007 -0.0668,0.0118 -0.0315,0.037 0.0315,0.0966 0,0.13364 -0.0157,0.0185 -0.0511,-0.007 -0.0668,0.0118 -0.0772,0.0908 0.0124,0.45078 0.0668,0.52276 0.0782,0.10354 0.18953,0.18405 0.26727,0.28695 0.25313,0.33507 0.27915,1.05104 0.13363,1.51324 -0.0313,0.0994 -0.14074,0.1286 -0.20045,0.16898 -0.56643,0.38309 -0.73447,-0.27035 -0.93544,-0.63686 -0.0934,-0.17029 -0.0304,-0.28017 -0.0668,-0.45594 -0.0361,-0.17412 -0.11845,-0.34965 -0.20045,-0.4992 -0.42058,-0.767 -1.47842,-0.21287 -2.20498,-0.0121 -0.23902,0.066 -0.51656,0.0791 -0.73499,0.26324 -0.0185,0.0157 0.0199,0.0534 0,0.0668 -0.0797,0.0539 -0.17907,0.019 -0.26727,0.0471 -0.26513,0.0846 -0.96151,0.47157 -1.13589,0.73482 -0.29308,0.44246 -0.0589,0.0455 -0.13364,0.35766 -0.0667,0.27874 -0.0673,0.0129 -0.20045,0.30261 -0.0199,0.0433 0.0141,0.0889 0,0.13364 -0.19349,0.6146 -0.48216,1.30589 -0.4009,1.94157 0.0251,0.19625 0.24732,0.78164 0.46772,0.85297 0.26215,0.0849 0.59987,0.0719 0.86863,0.11412 0.0299,0.005 0.0359,0.0543 0.0668,0.055 0.0804,0.002 0.91764,-0.11951 1.00226,-0.17673 0.21213,-0.14346 0.33586,-0.93315 0.40091,-1.13977 -0.0403,-0.11382 0.10824,-0.14335 0.13363,-0.22401 0.0141,-0.0448 -0.0199,-0.0903 0,-0.13363 0.01,-0.0217 0.0511,0.007 0.0668,-0.0118 0.0233,-0.0274 -0.0277,-0.18171 0,-0.20045 0.0398,-0.0269 0.0938,-0.0364 0.13363,-0.0236 0.13364,0.0432 0.10023,0.11595 0.20046,0.1651 0.13142,0.0644 0.35902,0.0953 0.46772,0.1848 0.13317,0.10969 -0.10339,0.59567 -0.13364,0.69173 -0.0294,0.0934 0,0.23893 0,0.33409 0,0.11337 -0.11132,0.33151 -0.0668,0.41268 0.034,0.062 0.1462,0.0807 0.20046,0.0983 0.59705,0.19325 1.23118,-0.40885 1.40316,0.42076 0.0985,0.47511 0.0668,1.01015 0.0668,1.52502 0,0.11136 -0.0955,0.29363 0,0.33409 0.0974,0.0412 0.22635,-0.009 0.33409,0.008 0.0945,0.0148 0.17149,0.076 0.26727,0.0865 0.19861,0.0217 0.609,-0.10739 0.80181,-0.14139 0.0704,-0.0124 0.26766,-0.18043 0.33408,-0.1257 0.0439,0.0362 0.37066,0.47551 0.40091,0.53067 0.0199,0.0363 -0.0315,0.10769 0,0.13363 0.19811,0.16317 1.24749,-0.17177 1.53679,-0.27098 0.50154,-0.17204 0.67723,-0.0248 1.1359,1.6e-4 0.053,0.003 1.23654,-0.1009 1.26953,-0.0902 0.44212,0.1431 0.15278,0.89261 0.80181,0.99452 0.24865,0.0391 0.54708,-0.0806 0.80181,-0.0746 0.20858,0.005 0.39719,0.1462 0.60136,0.16124 0.16352,0.0121 0.37473,-0.11938 0.53453,-0.0943 0.0299,0.005 0.0445,0.0367 0.0668,0.055 0.0446,0.0144 0.0853,0.0397 0.13364,0.0432 0.25762,0.019 0.56584,-0.19027 0.8018,-0.0746 0.33527,0.1644 -0.008,0.64562 0.0668,0.85686 0.13235,0.37369 0.80195,0.7273 1.1359,0.86879 0.0604,0.0255 0.14185,0.003 0.20045,0.0315 0.0186,0.009 -0.0185,0.0578 0,0.0668 0.42273,0.20728 0.93953,0.0243 1.40317,0.0199 0.212,-0.002 0.40086,0.0897 0.60135,0.0944 0.15746,0.004 0.31313,-0.027 0.46772,-0.0157 0.45135,0.0333 0.95624,0.44912 1.06908,0.88057 0.0326,0.12457 0.0717,0.74851 0,0.86863 -0.24333,0.4079 -0.48953,0.84312 -0.80181,1.21045 -0.1736,0.20421 -0.38035,0.13907 -0.46772,0.41656 -0.0635,0.20179 -0.17078,0.82446 -0.0668,1.01404 0.0432,0.0788 0.12616,0.19316 0.0668,0.32231 -0.0693,0.1509 -0.24744,0.31456 -0.33409,0.45981 -0.0946,0.15862 0.14957,-0.037 -0.0668,0.14542 -0.35395,0.29837 -0.7722,0.46286 -1.1359,0.73483 -0.28618,0.21399 -0.59835,0.57263 -0.93544,0.69948 -0.62991,0.23705 -0.58002,-0.10815 -1.06908,0.58941 -0.0968,0.13809 -0.16241,0.14374 -0.20045,0.30262 -0.0329,0.1375 -0.0592,0.9345 -0.0668,0.94722 -0.35496,0.59503 -0.80713,0.73244 -1.33635,1.03744 -0.22108,0.12738 -0.42772,0.30262 -0.66817,0.38509 -0.0656,0.0225 -0.32278,0.0178 -0.40091,0.0707 -0.21389,0.14466 0.0803,0.0125 -0.13363,0.15719 -0.39133,0.26467 -0.65635,0.64082 -1.00226,0.97854 -0.006,0.006 -1.11018,0.28315 -1.20271,0.34571 -0.30483,0.20616 -0.26657,0.71377 -0.40091,1.00613 -0.10402,0.22638 -0.17568,0.17037 -0.26727,0.24758 -0.0414,0.0349 -0.0316,0.10398 -0.0668,0.14541 -0.11231,0.13213 -0.3359,0.26059 -0.46772,0.34974 -0.07,0.0473 -0.25676,0.0453 -0.33408,0.0589 -0.38269,0.0675 -0.66513,0.12628 -0.80181,-0.25952 -0.0259,-0.0731 -0.0314,-0.19098 -0.0668,-0.2555 -0.19344,-0.35276 -0.002,-0.92508 0.0668,-1.34812 0.0861,-0.53168 0.002,-1.0811 0.0668,-1.6154 0.0138,-0.11275 0.13767,-0.76329 0.20046,-0.83715 0.0157,-0.0185 0.0511,0.007 0.0668,-0.0118 0.0534,-0.0628 0.0549,-0.94803 0.0668,-1.08086 0.0195,-0.21819 0.25218,-1.14373 0.13364,-1.3599 -0.0717,-0.13075 -0.073,0.01 -0.20045,-0.0315 -0.1127,-0.0365 -0.16475,-0.16499 -0.26728,-0.22014 -0.21254,-0.11434 -0.45144,-0.24364 -0.66817,-0.3499 -0.16924,-0.083 -0.37225,-0.0799 -0.53454,-0.17302 -0.0964,-0.0553 -0.16617,-0.17057 -0.26727,-0.22014 -0.0414,-0.0203 -0.10601,-0.007 -0.13363,-0.0432 -0.0247,-0.0327 0.0199,-0.0973 0,-0.13363 -0.13312,-0.24278 -0.13371,0.0233 -0.20045,-0.23193 -0.0162,-0.0619 0.0472,-0.16153 0,-0.20046 -0.17171,-0.14143 -0.50021,-0.278 -0.66818,-0.48353 -0.16414,-0.20087 -0.21422,-0.5243 -0.33409,-0.7429 -0.10819,-0.19731 -0.60917,-0.51741 -0.66817,-0.68399 -0.0141,-0.0398 0,-0.0891 0,-0.13363 -0.0223,-0.0629 -0.0407,-0.12789 -0.0668,-0.18868 -0.0787,-0.1829 -0.13363,-0.29268 -0.13363,-0.51097 0,-0.081 -0.0408,-0.37888 0,-0.46773 0.01,-0.0217 0.0511,0.007 0.0668,-0.0118 0.0315,-0.037 -0.0199,-0.0903 0,-0.13363 0.0945,-0.20564 0.39534,-0.66551 0.53454,-0.82924 0.10967,-0.12902 0.47529,-0.30699 0.53453,-0.49517 0.14004,-0.4448 -0.23641,-1.49 -0.0668,-1.8591 0.0491,-0.10686 0.43921,-0.16344 0.53454,-0.22789 0.0738,-0.0499 0.1982,-0.18936 0.26727,-0.24758 0.20157,-0.16992 0.20045,-0.18374 0.20045,-0.43624 0,-0.0446 0.0315,-0.1077 0,-0.13364 -0.0281,-0.0231 -0.2428,0.055 -0.26727,0.0471 -0.0199,-0.006 0.0214,-0.0645 0,-0.0668 -0.0716,-0.008 -1.37115,0.14015 -1.40317,0.11379 -0.0157,-0.0129 0.01,-0.0487 0,-0.0668 -0.0821,-0.14971 -0.3803,-0.31324 -0.46772,-0.38525 -0.024,-0.0198 -0.0999,-0.3826 -0.13363,-0.44416 -0.13684,-0.24955 -0.51763,-0.35953 -0.73499,-0.53858 -0.13825,-0.11386 0.21126,-0.0323 -0.0668,-0.12185 -0.11129,-0.036 -0.38514,-0.0499 -0.46772,-0.11798 -0.0157,-0.0129 0.0157,-0.0539 0,-0.0668 -0.0565,-0.0465 -0.32789,-0.11829 -0.40091,-0.12975 -0.0845,-0.0133 -0.18275,0.0604 -0.26727,0.0471 -0.14821,-0.0233 -0.34428,-0.29376 -0.4009,-0.39704 -0.068,-0.12409 -0.19641,-0.0282 -0.26727,-0.0865 -0.0157,-0.0129 0.0157,-0.0539 0,-0.0668 -0.15273,-0.1258 -1.0798,0.38371 -1.26953,0.29065 -0.39306,-0.19273 -0.5775,-0.1201 -1.06908,-0.27921 -0.22435,-0.0726 -0.50932,-0.28587 -0.66817,-0.41673 -0.15418,-0.12698 -0.44241,-0.33908 -0.53454,-0.5071 -0.0321,-0.0584 0.0214,-0.20687 0,-0.26727 -0.01,-0.0281 -0.0446,-0.0366 -0.0668,-0.055 -0.0223,-0.0406 -0.0511,-0.0774 -0.0668,-0.12186 -0.0141,-0.0398 0.0199,-0.0973 0,-0.13363 -0.0282,-0.0513 -0.11371,-0.0539 -0.13363,-0.11008 -0.0529,-0.14945 0.0791,-0.1353 -0.0668,-0.25549 -0.0157,-0.0129 -0.0511,0.0247 -0.0668,0.0118 -0.0157,-0.0129 0.0124,-0.0505 0,-0.0668 -0.27801,-0.368 -0.63707,-0.69256 -0.93544,-1.03778 -0.13522,-0.15645 10e-4,-0.10967 -0.13364,-0.31052 -0.15782,-0.23522 -0.10943,0.0153 -0.26726,-0.22014 -0.0362,-0.054 -0.0246,-0.13977 -0.0668,-0.18868 -0.0299,-0.0345 -0.0984,-0.0143 -0.13364,-0.0432 -0.0282,-0.0232 -0.0302,-0.27377 -0.0668,-0.32231 -0.0551,-0.0729 -0.0548,-0.0571 -0.13364,-0.0432 -0.35602,0.0628 0.0291,0.63986 0.13364,0.77825 0.20501,0.27137 0.50226,0.88142 0.73499,1.07312 0.0352,0.029 0.10252,0.01 0.13363,0.0432 0.0183,0.0197 0.33447,0.60881 0.26727,0.68786 -0.13185,0.1551 -0.7269,-0.59064 -0.80181,-0.72724 -0.13002,-0.23713 -0.005,-0.16713 -0.13363,-0.44415 -0.19597,-0.42272 -0.0878,0.0651 -0.20045,-0.36557 -0.0139,-0.0529 0.0253,-0.15429 0,-0.20045 -0.0423,-0.077 -0.14376,-0.0995 -0.20046,-0.1651 -0.0681,-0.0788 -0.0814,-0.24132 -0.13363,-0.31053 -0.26162,-0.3463 -0.65496,-0.59306 -0.86863,-0.98274 -0.0567,-0.10345 -0.0737,-0.26794 -0.13363,-0.37734 -0.0642,-0.11708 -0.20307,-0.16988 -0.26727,-0.28696 -0.0319,-0.0582 -0.0449,-0.2714 -0.0668,-0.3223 -0.0496,-0.11513 -0.14515,-0.1979 -0.20045,-0.29874 -0.0267,-0.0488 0.0267,-0.15171 0,-0.20045 -0.01,-0.0181 -0.0511,0.0247 -0.0668,0.0118 -0.12352,-0.10175 -0.1575,-0.33017 -0.26727,-0.42059 -0.0352,-0.029 -0.0984,-0.0143 -0.13363,-0.0432 -0.012,-0.01 0,-0.78318 0,-0.86863 0,-0.22537 0.0902,-0.40024 0.13363,-0.62492 0.0454,-0.23503 -0.0101,-0.30196 0.0668,-0.54631 0.0601,-0.19101 -0.0601,-0.41035 0,-0.60136 -0.0403,-0.11382 0.10824,-0.14335 0.13363,-0.22401 0.0608,-0.19299 0.26251,-0.85525 0.13364,-1.02582 -0.0904,-0.11965 -0.29205,-0.30738 -0.4009,-0.39704 -0.0157,-0.013 -0.0511,0.0247 -0.0668,0.0118 -0.12236,-0.10078 -0.0773,-0.27463 -0.13364,-0.37734 -0.0512,-0.0933 -0.11907,-0.0313 -0.20045,-0.0983 -0.0223,-0.0184 -0.0445,-0.17033 -0.0668,-0.18868 -0.0557,-0.0459 -0.14477,-0.0524 -0.20045,-0.0983 -0.0135,-0.0111 -0.0135,-0.31816 0,-0.33409 0.0557,-0.0655 0.14477,-0.10343 0.20045,-0.16898 0.0799,-0.094 0.18739,-0.35407 0.26727,-0.44804 0.0498,-0.0586 0.22952,-0.13637 0.26727,-0.18075 0.004,-0.005 0.25179,-0.59931 0.26727,-0.64849 0.0141,-0.0448 -0.0199,-0.0903 0,-0.13363 0.01,-0.0217 0.0569,0.01 0.0668,-0.0118 0.0199,-0.0433 -0.0199,-0.0903 0,-0.13364 0.01,-0.0217 0.0511,0.007 0.0668,-0.0118 0.0449,-0.0528 0.22126,-0.33549 0.33408,-0.39298 0.0423,-0.0216 0.0938,0.003 0.13364,-0.0236 0.0445,-0.0302 0.0223,-0.1153 0.0668,-0.14542 0.10001,-0.0676 0.33629,-0.22964 0.4009,-0.33796 0.097,-0.16252 0.26803,-0.56003 0.4009,-0.67204 0.0371,-0.0312 0.0938,0.003 0.13364,-0.0236 0.063,-0.0426 0.017,-0.15365 0.0668,-0.21224 0.17012,-0.20012 0.48642,-0.45725 0.60135,-0.70738 0.055,-0.11976 0.17067,-0.33441 0.26727,-0.44804 0.14152,-0.16647 0.42403,-0.45383 0.60136,-0.57376 0.1127,-0.0763 0.20742,-0.0752 0.33409,-0.19254 0.22168,-0.20534 0.32163,-0.49839 0.53454,-0.69561 0.38755,-0.35899 0.55179,-0.48168 1.00226,-0.71126 0.1077,-0.0549 0.16419,-0.24469 0.26726,-0.3144 0.0649,-0.0439 0.20234,-0.0701 0.26728,-0.11393 0.14955,-0.10117 0.16557,-0.2122 0.33408,-0.32617 0.0598,-0.0404 0.13706,-0.003 0.20045,-0.0353 0.28235,-0.14389 0.76037,-0.41742 0.93545,-0.0981 0.0516,0.0942 0.0424,0.49618 0.0668,0.58959 z"
       id="path870"
       inkscape:export-xdpi="351.84"
       inkscape:export-ydpi="351.84" />
    <path
       id="path872"
       style="fill:none;stroke:#000000;stroke-width:0.264583px;stroke-linecap:butt;stroke-linejoin:miter;stroke-opacity:1"
       d="m 46.032073,21.617294 c -0.35552,0.10035 -0.46251,0.2778 -0.46251,0.67387 0,0.0668 -0.0299,0.146 0,0.2005 0.01,0.0181 0.051,-0.0243 0.0667,-0.0114 0.0547,0.0451 -0.006,0.32893 0.0667,0.38913 0.0352,0.0289 0.0986,0.0139 0.13384,0.0429 0.10455,0.0862 0.1416,0.25847 0.2005,0.36587 0.043,0.0783 0.25743,0.26291 0.33383,0.27492 0.0423,0.007 0.0916,-0.0308 0.13385,-0.0238 0.13934,0.0219 0.3607,0.41706 0.40101,0.53072 0.0113,0.0319 0.0295,0.43307 0,0.46767 -0.0498,0.0585 -0.15071,0.0437 -0.20051,0.10232 -0.0157,0.0185 0.0157,0.0482 0,0.0667 -0.10075,0.11851 -0.59568,-0.0896 -0.66818,-0.14934 -0.32437,-0.26718 -0.42837,-0.70063 -0.66817,-1.01803 -0.0449,-0.0595 -0.0929,-0.27687 -0.13385,-0.31057 -0.019,-0.0156 -0.26216,-0.14348 -0.26716,-0.15348 -0.1628,-0.29689 0.24547,-1.17878 -0.53433,-1.04128 -0.11137,0.0196 -0.23475,-0.008 -0.33435,0.0589 -0.50255,0.33989 -0.0353,0.82146 0.13384,1.04541 0.0276,0.0366 0.0278,0.0978 0.0667,0.12196 0.10077,0.0628 0.32711,0.0985 0.40101,0.19637 0.0511,0.0677 0.10313,0.42588 0.13333,0.51108 0.0291,0.0821 0.2369,0.37235 0.13694,0.50488 0.0673,0.003 0.13425,0.011 0.1974,0.0377 0.53361,0.22607 0.2771,0.38082 0.40101,0.73071 0.0183,0.0517 0.17691,0.33866 0.20051,0.36587 0.22717,0.26289 0.0512,-0.24036 0.26716,0.15347 0.0984,0.17948 -0.0287,0.61558 0.0667,0.78962 0.0526,0.0959 0.0667,0.0645 0.0667,0.18914 0,0.1336 0.0224,0.0184 -0.0667,0.0785 -0.43088,0.29146 -0.88184,-0.36176 -1.26969,0.22376 -0.15737,0.23755 -0.061,1.91089 0,2.20504 0.0269,0.12976 0.1102,0.22429 0.2005,0.29869 0.051,0.042 0.53051,-0.0934 0.60152,-0.10594 0.2514,-0.0443 0.86457,-0.14656 1.002,-0.37724 0.15256,-0.25568 0.2931,-0.70946 0.20051,-0.971 -0.0248,-0.0699 -0.12037,-0.13836 -0.0667,-0.25528 0.12951,-0.28185 0.45151,-0.40284 0.66818,-0.5855 0.0618,-0.0519 0.0522,-0.20238 0.0667,-0.21238 0.17304,-0.11728 0.66891,-0.11793 0.80202,-0.008 0.0352,0.029 0.0315,0.093 0.0667,0.12196 0.0157,0.0129 0.0444,-0.008 0.0667,-0.0119 0.0445,0.0144 0.0986,0.0144 0.13384,0.0434 0.0335,0.0276 0.09,0.14063 0.13384,0.17673 0.0498,0.0415 0.1507,-0.009 0.2005,0.0315 0.13743,0.11319 0.3001,0.31442 0.4005,0.46405 0.15328,0.22845 0.20195,0.50116 0.33434,0.74259 0.15764,0.28749 0.65705,0.94809 0.93535,1.03818 0.0398,0.0128 0.094,-0.0367 0.13384,-0.0237 0.11169,0.0362 0.32939,0.1422 0.40049,0.1297 -0.0222,-0.085 -0.0445,-0.17024 -0.0667,-0.25528 -0.0222,0.004 -0.051,0.0249 -0.0667,0.0119 -0.0936,-0.0771 -0.0879,-0.47101 -0.13384,-0.57774 -0.16653,-0.38697 -0.42131,-0.72399 -0.60099,-1.09657 -0.19005,-0.39412 -0.15876,-0.90452 -0.40101,-1.26556 -0.14675,-0.21871 -0.3632,-0.37613 -0.53434,-0.57413 -0.24265,-0.28076 -0.5186,-0.63089 -0.73535,-0.93947 -0.25948,-0.36941 -0.27979,-0.91102 -0.46767,-1.25367 -0.0381,-0.0695 -0.0662,-0.11587 -0.0915,-0.15607 -0.0254,0.004 -0.0518,0.006 -0.0801,0.004 -0.0285,0.10923 -0.0847,0.15607 -0.22376,0.005 -0.063,-0.0686 -0.11787,-0.14427 -0.17415,-0.21859 -0.44849,-0.41102 -0.44537,-0.37174 -0.85214,-0.97824 -0.0203,-0.0303 -0.0365,-0.063 -0.0548,-0.0946 -0.006,-0.008 -0.0129,-0.0151 -0.0186,-0.0233 -0.0754,-0.088 -0.14927,-0.17716 -0.22634,-0.26355 -0.0452,-0.0369 -0.0719,-0.0668 -0.0987,-0.0966 -0.0597,-0.046 -0.12653,-0.086 -0.16071,-0.15141 -0.0321,-0.0614 -0.0635,-0.12659 -0.0956,-0.19069 z m -1.06092,2.84531 c -0.0919,-0.005 -0.18442,8e-5 -0.27027,-0.0134 -0.0612,-0.01 -0.16385,-0.0374 -0.25373,-0.0589 0.0408,0.1787 0.13471,0.27247 0.38706,0.1018 0.0398,-0.0269 0.10234,0.0138 0.13384,-0.0233 0.002,-0.002 0.002,-0.004 0.003,-0.006 z m -0.524,-0.0724 c -0.0505,-0.22086 -0.0179,-0.57388 -0.0806,-0.75086 -0.0565,-0.15954 -0.21233,-0.24201 -0.33383,-0.34209 -0.0557,-0.0458 -0.17996,-0.0786 -0.26716,-0.0196 -0.30048,0.20322 -0.1532,0.81565 0.0667,0.92346 0.12625,0.0619 0.38631,0.13455 0.61495,0.18914 z m 1.73478,-2.72386 c -0.0109,-0.004 -0.0196,-0.006 -0.0186,0.003 0.002,0.0146 0.0205,0.0213 0.0377,0.0222 7.9e-4,-0.006 0.002,-0.0111 0.003,-0.0165 -0.007,-0.003 -0.0145,-0.005 -0.0217,-0.008 z"
       inkscape:export-xdpi="351.84"
       inkscape:export-ydpi="351.84" />
    <path
       style="fill:none;stroke:#000000;stroke-width:0.264583px;stroke-linecap:butt;stroke-linejoin:miter;stroke-opacity:1"
       d="m 28.998743,17.906254 c 0.0952,-0.0128 1.66616,-0.40123 2.20497,-0.18834 0.0432,0.0171 0.0392,0.0853 0.0668,0.12185 0.26613,0.35227 -0.0748,0.79101 0.0668,1.19093 0.0136,0.0384 0.12004,0.13852 0.13363,0.1769 0.0379,0.10702 0.0374,0.20976 0.0668,0.32231 0.0776,0.29658 0.25802,0.68764 0.60136,0.69576 0.051,0.001 0.21253,-0.0649 0.26727,-0.0471 0.15455,0.05 0.17775,0.39098 0.26727,0.55423 0.13143,0.23969 0.59014,0.21881 0.73499,0.33812 0.27249,0.22446 0.0983,0.76093 0.53454,0.97483 0.52652,0.25818 1.03764,-0.12877 1.40316,-0.047 0.31871,0.0713 0.18095,0.0969 0.46772,0.11798 0.24029,0.0177 0.83148,-0.10941 1.00226,-0.31035 0.10851,-0.12765 -0.14391,-1.50115 0.20046,-1.90624 0.0177,-0.0208 0.17293,-0.0305 0.20045,-0.0353 0.13141,-0.0232 0.47749,-0.0223 0.60135,-0.10604 0.097,-0.0656 0.14405,-0.12823 0.26727,-0.18076 0.0686,-0.0293 0.21586,-0.0535 0.26727,-0.11392 0.16033,-0.1886 0.0668,-0.72688 0.0668,-0.94722 0,-0.47908 0.28269,-0.0652 0.46772,-0.28292 0.0315,-0.0371 -0.0199,-0.0903 0,-0.13364 0.0379,-0.0825 0.10157,-0.11411 0.0668,-0.21223 -0.0466,-0.13165 -0.33914,-0.27682 -0.46772,-0.31844 -0.17904,-0.0579 -0.46993,-0.001 -0.66818,-0.0158 -0.4648,-0.0343 -0.88893,-0.19884 -1.33635,-0.29891 -0.6726,-0.15044 0.14187,0.0272 -0.33408,-0.008 -0.2959,-0.0218 -0.56726,-0.15872 -0.86863,-0.18092 -0.0648,-0.005 -0.13563,0.0401 -0.20045,0.0353 -0.27251,-0.02 -0.5293,-0.10582 -0.80181,-0.12589 -0.35472,-0.0262 -0.71167,-0.003 -1.06907,-0.012 -0.159,-0.004 -0.30873,-0.0474 -0.46773,-0.0511 -0.55681,-0.0132 -1.18044,0.3195 -1.73725,0.30632 -0.39442,-0.009 -0.8948,0.0329 -1.26953,0.22385 -0.0634,0.0323 -0.1532,-0.0202 -0.20045,0.0353 -0.0157,0.0185 0.0199,0.0534 0,0.0668 -0.0423,0.0287 -0.22435,0.005 -0.26727,0.0471 -0.0984,0.0961 -0.17818,0.20959 -0.26727,0.31439 z"
       id="path874"
       inkscape:export-xdpi="351.84"
       inkscape:export-ydpi="351.84" />
    <path
       style="fill:none;stroke:#000000;stroke-width:0.264583px;stroke-linecap:butt;stroke-linejoin:miter;stroke-opacity:1"
       d="m 49.845763,31.135154 c -0.26533,-0.38944 -1.0663,-0.66951 -1.20271,-1.19109 -0.0324,-0.12393 0.0324,-0.27697 0,-0.40091 -0.008,-0.0292 -0.0569,-0.0269 -0.0668,-0.055 -0.0214,-0.0604 0.0321,-0.2088 0,-0.26727 -0.22078,-0.40264 -0.43354,-0.32446 -0.93544,-0.23596 -0.2479,0.0437 -0.86644,0.59749 -1.1359,0.73482 -0.21939,0.11179 -0.61467,0.0549 -0.8018,0.27502 -0.0157,0.0185 0.01,0.0451 0,0.0668 -0.0512,0.11137 -0.11908,0.0733 -0.20046,0.16899 -0.0602,0.0708 -0.28091,0.61135 -0.33408,0.72708 -0.0812,0.17667 -0.30357,0.29028 -0.40091,0.40478 -0.0387,0.0455 -0.0949,0.24527 -0.13363,0.29083 -0.124,0.14587 -0.44019,0.2643 -0.60136,0.37331 -0.25133,0.16997 -0.38607,0.84762 -0.53454,1.09651 -0.0699,0.11716 -0.22743,0.18784 -0.26727,0.3144 -0.0668,0.21223 0.0668,0.45594 0,0.66817 -0.0612,0.19449 -0.32118,0.23126 -0.4009,0.40478 -0.21172,0.46076 0.47909,1.01731 0.33408,1.47789 -0.0571,0.18137 -0.18393,0.4003 -0.26726,0.58167 -0.061,0.13282 -0.0421,0.6829 0,0.80181 0.12307,0.34751 0.45588,0.55818 0.60135,0.89622 0.0165,0.0385 -0.0199,0.0973 0,0.13363 0.01,0.0181 0.0446,-0.008 0.0668,-0.0118 0.0223,0.0184 0.0569,0.0269 0.0668,0.055 0.0664,0.18741 0.10553,0.3261 0.20045,0.4992 0.0579,0.10554 -0.0243,0.2017 0.0668,0.32231 0.31162,0.41248 1.36688,0.5016 1.87088,0.53873 0.19559,0.0144 0.57827,0.21026 0.80181,0.0591 0.10808,-0.073 0.1,-0.2179 0.20045,-0.30261 0.10944,-0.0923 0.3925,-0.19444 0.46772,-0.28292 0.0157,-0.0185 -0.0199,-0.0533 0,-0.0668 0.0998,-0.0675 0.29959,-0.069 0.40091,-0.13749 0.1664,-0.11255 0.0435,-0.20812 0.26727,-0.24758 0.0481,-0.008 0.45908,-0.11865 0.53454,-0.0943 0.12552,0.0406 0.11157,0.22553 0.20045,0.29874 0.0157,0.0129 0.0569,-0.0299 0.0668,-0.0118 0.0199,0.0364 -0.0199,0.0973 0,0.13364 0.031,0.0565 0.1544,-0.006 0.20045,0.0315 0.0405,0.0334 0.2397,0.25047 0.26727,0.28696 0.0199,0.0264 0,0.16317 0,0.20045 0,0.1 0.0574,0.46703 0,0.53454 -0.15066,0.17722 -0.55587,0.50174 -0.46772,0.75065 0.14824,0.41858 0.71829,0.65842 0.53454,1.24209 -0.0628,0.19939 -0.37177,0.40818 -0.46773,0.61701 -0.18799,0.40914 -0.12936,0.73643 -0.20045,1.10443 -0.078,0.40399 -0.26727,0.75236 -0.26727,1.1162 0,0.56563 -0.0784,0.70519 -0.33409,1.26162 -0.0709,0.15438 0,0.53288 0,0.66818 0,0.0534 -0.10719,0.9178 0.20046,0.63283 0.68884,-0.6381 1.312,-1.60394 1.5368,-2.54277 0.0632,-0.26402 0.0686,-0.55389 0.13363,-0.82538 0.0645,-0.2694 0.21543,-0.5806 0.26727,-0.84893 0.13818,-0.71524 0.21994,-1.48091 0.53454,-2.1656 0.0423,-0.0921 0.1103,-0.79472 0.13364,-0.89218 0.0908,-0.37934 0.14913,-0.80779 0.26727,-1.18303 0.19122,-0.6074 0.0837,-0.0153 0.20045,-0.50306 0.0437,-0.18242 0.0159,-0.34629 0.0668,-0.54632 0.14899,-0.58497 0.30888,-1.16892 0.46773,-1.75291 0.0639,-0.23485 0.16509,-0.46746 0.20045,-0.70352 0.14391,-0.9608 0.0632,-1.89872 -0.13364,-2.78277 -0.0895,-0.40179 -0.30541,-0.70333 -0.46772,-1.05341 -0.0783,-0.16879 -0.12581,-0.50454 -0.26727,-0.62106 -0.0157,-0.0129 -0.0511,0.0247 -0.0668,0.0118 -0.0945,-0.0778 0.0367,-0.27888 0,-0.4009 -0.0592,-0.19689 -0.28022,-0.39138 -0.46773,-0.45207 -0.7578,-0.24527 -0.23765,0.61365 -0.4009,0.80568 -0.0803,0.0945 -0.22391,1.9e-4 -0.33409,-0.008 z"
       id="path876"
       inkscape:export-xdpi="351.84"
       inkscape:export-ydpi="351.84" />
    <ellipse
       style="fill:none;stroke:#000000;stroke-width:0.502675;stroke-miterlimit:1;stroke-dasharray:none;stroke-dashoffset:0;stroke-opacity:1"
       id="path878"
       cx="24.694975"
       cy="46.399532"
       rx="22.626543"
       ry="21.308533"
       transform="matrix(0.96062212,-0.27785815,0.1353128,0.99080293,0,0)"
       inkscape:export-xdpi="351.84"
       inkscape:export-ydpi="351.84" />
    <path
       style="fill:none;stroke:#000000;stroke-width:0.264583px;stroke-linecap:butt;stroke-linejoin:miter;stroke-opacity:1"
       d="m 26.660143,41.159514 c -0.47771,0.0428 -1.04961,-0.11416 -1.33635,-0.40091 -0.18323,-0.18323 -0.71279,-0.33408 -0.93545,-0.33408 -0.0949,0 -0.44652,0.088 -0.26727,0.26727 0.0315,0.0315 0.10214,-0.0315 0.13364,0 0.0157,0.0157 -0.0157,0.0511 0,0.0668 0.0603,0.0603 0.25447,0.0938 0.33409,0.13364 0.0563,0.0282 0.0739,0.11371 0.13363,0.13363 0.0423,0.0141 0.0938,-0.0199 0.13364,0 0.0199,0.01 -0.0157,0.0511 0,0.0668 0.0757,0.0757 0.30665,0.15333 0.4009,0.20045 0.0398,0.0199 0.10214,-0.0315 0.13364,0 0.0544,0.0544 0.12673,0.16532 0.26727,0.20045 0.24309,0.0608 0.45945,0.0961 0.66817,0.20046 0.0563,0.0282 0.0773,0.10546 0.13363,0.13363 0.14151,0.0708 0.32611,0.12565 0.40091,0.20045 0.023,0.023 0.0379,0.2257 0.20045,0.33409 0.17882,0.11921 0.36969,-0.0156 0.53454,0.0668 0.0199,0.01 -0.0157,0.0511 0,0.0668 0.0103,0.0103 0.54207,0.30444 0.60136,0.33408 0.10222,0.0511 0.19644,-0.0314 0.26726,-0.0668 0.20857,-0.10429 0.76372,0 1.00227,0 0.12243,0 0.94224,-0.007 1.00226,-0.0668 0.0135,-0.0136 0.0135,-0.32055 0,-0.33409 -0.0223,-0.0223 -0.17818,-0.0445 -0.20046,-0.0668 -0.0157,-0.0157 0.0158,-0.0511 0,-0.0668 -0.0433,-0.0433 -0.81055,-0.15882 -0.93544,-0.20045 -0.49777,-0.16592 -0.84044,-0.46772 -1.33635,-0.46772 -0.0931,0 -0.71138,-0.17684 -0.73499,-0.20045 -0.0157,-0.0157 0.0157,-0.0511 0,-0.0668 -0.0315,-0.0315 -0.10214,0.0315 -0.13363,0 -0.0157,-0.0157 0.0199,-0.0568 0,-0.0668 -0.14087,-0.0704 -0.31494,-0.0286 -0.46772,-0.0668 z"
       id="path880"
       inkscape:export-xdpi="351.84"
       inkscape:export-ydpi="351.84" />
    <path
       style="fill:none;stroke:#000000;stroke-width:0.264583px;stroke-linecap:butt;stroke-linejoin:miter;stroke-opacity:1"
       d="m 32.874153,28.196934 c 0.30995,0.13965 0.59695,0.32528 0.73499,0.60136 0.0365,0.0729 0.0458,0.76427 -0.0668,0.80181 -0.11413,0.038 -1.93301,-0.12895 -1.9377,-0.13364 -0.0158,-0.0157 0.0157,-0.0511 0,-0.0668 -0.0223,-0.0223 -0.17818,-0.0445 -0.20045,-0.0668 -0.17017,-0.17017 0.45768,-0.48608 0.53453,-0.60136 0.20453,-0.30678 0.0668,-0.65924 0.0668,-1.00226"
       id="path882"
       inkscape:export-xdpi="351.84"
       inkscape:export-ydpi="351.84" />
    <path
       style="fill:none;stroke:#000000;stroke-width:0.264583px;stroke-linecap:butt;stroke-linejoin:miter;stroke-opacity:1"
       d="m 41.827683,19.830744 c -0.96839,0.17075 -1.80695,-0.14991 -2.80633,0.0271 -0.17818,0.0982 -0.38835,0.14707 -0.53454,0.29471 -0.0488,0.0492 0.86562,0.25436 1.00226,0.291 0.22648,0.0607 0.55606,0.12392 0.73499,0.2713 0.0386,0.0318 0.0283,0.5822 0.40091,0.33022 0.60508,-0.40924 -0.4879,0.091 0.86862,-0.48725 0.37884,-0.1615 0.49319,-0.0139 0.60136,-0.57376 0.0388,-0.20096 -0.0552,-0.13771 -0.26727,-0.15332 z"
       id="path884"
       inkscape:export-xdpi="351.84"
       inkscape:export-ydpi="351.84" />
    <text
       xml:space="preserve"
       style="font-style:normal;font-weight:normal;font-size:10.5833px;line-height:1.25;font-family:sans-serif;fill:#000000;fill-opacity:1;stroke:none;stroke-width:0.265;stroke-miterlimit:3.4;stroke-dasharray:none"
       x="18.21805"
       y="22.097261"
       id="text902"
       transform="skewY(-10)"
       inkscape:export-xdpi="351.84"
       inkscape:export-ydpi="351.84"><tspan
         sodipodi:role="line"
         id="tspan900"
         x="18.21805"
         y="22.097261"
         style="font-style:normal;font-variant:normal;font-weight:normal;font-stretch:normal;font-family:Noteworthy;-inkscape-font-specification:Noteworthy;stroke-width:0.265;stroke-miterlimit:3.4;stroke-dasharray:none">Tutor</tspan></text>
    <text
       xml:space="preserve"
       style="font-style:normal;font-weight:normal;font-size:10.5833px;line-height:1.25;font-family:sans-serif;fill:#000000;fill-opacity:1;stroke:none;stroke-width:0.265;stroke-miterlimit:3.4;stroke-dasharray:none"
       x="19.540956"
       y="73.349197"
       id="text906"
       transform="skewY(-10)"
       inkscape:export-xdpi="351.84"
       inkscape:export-ydpi="351.84"><tspan
         sodipodi:role="line"
         id="tspan904"
         x="19.540956"
         y="73.349197"
         style="font-style:normal;font-variant:normal;font-weight:normal;font-stretch:normal;font-family:Noteworthy;-inkscape-font-specification:Noteworthy;stroke-width:0.265;stroke-miterlimit:3.4;stroke-dasharray:none">World</tspan></text>
  </g>
</svg>
