<?xml version="1.0" encoding="UTF-8" standalone="no"?>
<svg
   xmlns:dc="http://purl.org/dc/elements/1.1/"
   xmlns:cc="http://creativecommons.org/ns#"
   xmlns:rdf="http://www.w3.org/1999/02/22-rdf-syntax-ns#"
   xmlns:svg="http://www.w3.org/2000/svg"
   xmlns="http://www.w3.org/2000/svg"
   xmlns:xlink="http://www.w3.org/1999/xlink"
   xmlns:sodipodi="http://sodipodi.sourceforge.net/DTD/sodipodi-0.dtd"
   xmlns:inkscape="http://www.inkscape.org/namespaces/inkscape"
   width="150mm"
   height="120mm"
   viewBox="0 0 150 120"
   version="1.1"
   id="svg8"
   inkscape:version="1.0.1 (c497b03c, 2020-09-10)"
   sodipodi:docname="tutor_world6.svg">
  <defs
     id="defs2" />
  <sodipodi:namedview
     id="base"
     pagecolor="#ffffff"
     bordercolor="#666666"
     borderopacity="1.0"
     inkscape:pageopacity="0.0"
     inkscape:pageshadow="2"
     inkscape:zoom="0.78693673"
     inkscape:cx="364.13524"
     inkscape:cy="296.55435"
     inkscape:document-units="mm"
     inkscape:current-layer="layer1"
     inkscape:document-rotation="0"
     showgrid="false"
     inkscape:window-width="1697"
     inkscape:window-height="1027"
     inkscape:window-x="1794"
     inkscape:window-y="61"
     inkscape:window-maximized="0" />
  <metadata
     id="metadata5">
    <rdf:RDF>
      <cc:Work
         rdf:about="">
        <dc:format>image/svg+xml</dc:format>
        <dc:type
           rdf:resource="http://purl.org/dc/dcmitype/StillImage" />
        <dc:title></dc:title>
      </cc:Work>
    </rdf:RDF>
  </metadata>
  <g
     inkscape:label="Layer 1"
     inkscape:groupmode="layer"
     id="layer1">
    <ellipse
       style="fill:#f082ac;fill-opacity:1;stroke:#f082ac;stroke-width:0.50005;stroke-miterlimit:1;stroke-dasharray:none;stroke-dashoffset:0;stroke-opacity:1"
       id="path878"
       cx="62.969097"
       cy="83.285202"
       rx="42.836517"
       ry="42.772446"
       transform="matrix(0.99366781,-0.11235783,0.13201187,0.99124814,0,0)"
       inkscape:export-xdpi="10.938344"
       inkscape:export-ydpi="10.938344"
       inkscape:export-filename="/Users/josephkranak/Documents/GitHub/Codeworks/Projects/tutorworld/client/public/logo.png" />
    <path
       style="fill:#ffffff;fill-opacity:1;stroke:#f082ac;stroke-width:0.264584px;stroke-linecap:butt;stroke-linejoin:miter;stroke-opacity:1"
       d="m 52.255418,41.691086 c 0.90251,0.42888 1.3501,-0.32425 2.0936,-0.65513 0.34055,-0.15158 0.88015,-0.0592 1.0468,-0.39309 0.43687,-0.87492 -2.74784,-1.27703 -2.74784,-2.09645 0,-0.63798 3.40325,-2.91447 3.79465,-2.62054 0.22342,0.1679 0.45677,0.32638 0.65425,0.52412 0.17273,0.17267 0.73972,1.2247 1.17764,0.78619 0.0858,-0.0859 0.0157,-0.84063 0.5234,-1.17928 0.38697,-0.25829 1.8627,0.18967 2.22446,0.26197 0.39909,0.0803 1.80078,0.0533 2.09361,10e-6 0.1547,-0.0282 0.26457,-0.17062 0.39254,-0.26203 0.17743,-0.12692 0.44241,-0.19022 0.5234,-0.39311 0.28747,-0.71963 -2.0421,0.36302 -0.91594,-1.44127 0.0834,-0.13353 0.28135,-0.15063 0.39254,-0.26206 0.0689,-0.069 0.0529,-0.20345 0.13082,-0.26207 0.59936,-0.45012 4.78495,-1.06707 5.62654,-0.78615 0.71906,0.23992 0.48369,2.08591 0,2.48952 -0.44953,0.37512 -1.03002,0.56077 -1.5702,0.78617 -0.40023,0.16707 -2.09373,0.54717 -0.39255,1.04821 0.27806,0.082 1.82373,0.28651 2.35531,0.39312 1.32765,0.26579 0.91732,0.20275 2.09361,0.52418 1.80509,0.49304 2.67006,0.64459 3.27124,2.75156 0.0582,0.20421 0.37951,0.94329 0.26169,1.17924 -0.31903,0.63895 -1.73125,0.64 -2.22444,0.39308 -0.0707,-0.0352 -0.34727,-0.3074 -0.39254,-0.26208 -0.26526,0.26559 1.55986,2.09987 0.78509,2.35848 -0.37183,0.12417 -0.66007,-0.0571 -0.91595,-0.26212 -0.55528,-0.44485 -3.24627,-1.24844 -3.9255,-1.31029 -0.55796,-0.0509 -1.77011,0.062 -2.22446,-0.39307 -0.63528,-0.63614 -0.49724,-1.39936 0,-2.09644 0.0531,-0.0746 0.77424,-0.48767 0.5234,-0.65513 -0.10888,-0.0727 -0.26169,8e-5 -0.39254,-9e-5 -0.26169,8e-5 -0.5234,-5e-5 -0.78511,2e-5 -1.06451,-9e-5 -1.91427,0.35264 -2.74785,1.04823 -0.44648,0.37254 -0.54001,0.9255 -1.0468,1.17924 -0.58883,0.2948 -1.22029,0.33565 -1.83189,0.52411 -1.41858,0.43706 -0.45185,0.22109 -1.43935,0.78615 -0.46234,0.26456 -1.13358,0.26178 -1.57021,0.52411 -0.92893,0.55811 -1.87609,1.66257 -2.0936,2.75158 -0.0603,0.30222 -0.10849,1.30076 0,1.57233 0.3967,0.99305 3.23221,0.77964 4.05635,0.91717 0.31322,0.0514 0.60274,0.20977 0.91595,0.26213 0.67059,0.11252 1.30932,0.1749 1.96275,0.39303 0.13082,0.0437 0.29502,0.0325 0.39255,0.13128 0.23051,0.23072 0.4601,1.25537 0.5234,1.5723 0.14158,0.70921 -0.65473,0.96049 0.39256,1.83439 0.36298,0.30291 0.69343,0.47392 1.17764,0.39304 0.52174,-0.0871 0.49761,-1.15714 0.5234,-1.44128 0.10556,-1.16247 0.0118,-2.38937 -0.13081,-3.53773 -0.0672,-0.53871 -0.31753,-1.04643 -0.39255,-1.57233 -0.0617,-0.43238 0,-0.87352 0,-1.31026 0,-0.1359 -0.17351,-1.41991 -0.13082,-1.44132 0.687,-0.34394 1.36666,-0.31218 2.09361,-0.39306 1.01805,-0.11332 2.08832,-0.35295 3.00955,0.26206 0.10262,0.0685 0.15589,0.19852 0.26171,0.26204 0.11829,0.0709 0.2822,0.0482 0.39255,0.13109 0.12259,0.0922 0.30542,0.52427 0.39255,0.65513 0.34985,0.52548 0.75681,0.772 1.30851,1.04821 1.92431,0.96348 0.87012,-0.91719 1.70104,-0.91718 0.16411,-5e-5 0.91595,0.0835 0.91595,0.13094 0,0.39199 -0.19809,0.12365 -0.13082,0.39308 0.26841,1.07505 0.99263,2.43075 1.96275,3.01361 0.43357,0.26049 1.09652,0.1436 1.5702,0.26155 0.28829,0.0723 0.5293,0.39604 0.78511,0.52412 0.72535,0.36315 0.91595,0.44328 0.91595,1.31026 0,0.17472 0.0423,0.35462 0,0.52411 -0.15803,0.63273 -0.0623,-0.005 -0.26169,0.39307 -0.42329,0.8477 -1.30358,0.50145 -2.22446,0.65514 -0.35273,0.0589 -0.69896,0.17492 -1.0468,0.26204 -0.6587,0.16492 -1.40966,-0.0212 -2.09361,0.131 -0.0176,0.005 -1.03389,0.11805 -1.0468,0.13099 -0.14609,0.14638 -0.13082,0.3438 -0.13082,0.65512 0,1.41749 1.0885,0.86971 1.43935,1.57233 0.17566,0.35167 -0.0799,0.63337 0.39255,0.91721 0.39679,0.23831 1.25861,0.22027 1.70104,0.13092 0.0683,-0.0137 0.66413,-0.38322 0.78511,-0.26204 0.15725,0.15738 -0.0206,0.46176 -0.13082,0.65512 -0.1963,0.34402 -0.49984,0.42664 -0.78509,0.65514 -1.04637,0.83823 -1.82578,0.28702 -3.00955,0.52409 -0.58205,0.11649 -1.04085,0.3901 -1.5702,0.65516 -0.21295,0.10674 -0.9749,0.23003 -1.04681,0.26204 -0.51549,0.22943 -2.20176,1.00279 -2.48615,1.57234 -0.19074,0.38217 -0.24761,1.29616 -0.5234,1.57232 -0.30146,0.3019 -0.96737,-0.028 -1.17764,0.39306 -0.12729,0.25493 -0.60316,1.47311 -0.65425,1.70339 -0.0118,0.0495 -0.21806,1.65963 -0.26171,1.70332 -0.0989,0.099 -1.05764,0.86913 -1.17764,0.9172 -0.70292,0.28156 -0.5435,0.1008 -1.17766,0.5241 -0.33108,0.22102 -0.53178,0.92559 -0.78509,1.17925 -0.0309,0.0308 -0.10007,-0.0314 -0.13082,4e-5 -0.0617,0.0619 0.0617,0.20032 0,0.26207 -0.0307,0.0309 -0.10007,-0.0314 -0.13082,4e-5 -0.15118,0.15137 0.0243,0.88827 0.13082,1.04821 0.15314,0.2301 0.37116,0.42647 0.5234,0.65514 0.49571,0.74457 0.54667,2.15758 0.26169,3.01363 -0.0613,0.18409 -0.27561,0.20351 -0.39254,0.26205 -1.10926,0.55537 -1.43833,-0.78411 -1.8319,-1.57233 -0.18291,-0.36621 -0.0595,-0.55992 -0.13081,-0.91716 -0.0707,-0.35393 -0.23197,-0.72662 -0.39255,-1.04823 -0.82363,-1.64949 -2.89523,-0.92863 -4.31807,-0.78615 -0.46807,0.0468 -1.01159,-0.0235 -1.43934,0.26207 -0.0362,0.0244 0.039,0.11159 0,0.13099 -0.15608,0.0783 -0.35068,-0.0247 -0.52341,-5e-5 -0.51921,0.074 -1.88294,0.59227 -2.22444,1.0482 -0.57394,0.76631 -0.11534,0.0689 -0.26171,0.65515 -0.13062,0.52352 -0.13179,0.002 -0.39254,0.5241 -0.039,0.078 0.0276,0.17921 0,0.26206 -0.37892,1.13829 -0.94423,2.39409 -0.7851,3.66874 0.0492,0.39353 0.48434,1.61829 0.91595,1.83437 0.51338,0.25712 1.17474,0.34841 1.70106,0.52415 0.0586,0.0202 0.0703,0.11884 0.13082,0.13099 0.15745,0.0318 1.79703,0.0829 1.96275,0 0.41542,-0.20798 0.65772,-1.71375 0.78511,-2.09643 -0.0789,-0.23712 0.21197,-0.24367 0.26169,-0.39308 0.0276,-0.0829 -0.039,-0.18394 0,-0.26204 0.0196,-0.039 0.10007,0.0314 0.13082,-4e-5 0.0456,-0.0457 -0.0543,-0.3659 0,-0.39308 0.0779,-0.039 0.18369,-0.039 0.26169,-8e-5 0.26171,0.13099 0.19628,0.26203 0.39256,0.39306 0.25737,0.17178 0.70308,0.31103 0.91595,0.52411 0.26079,0.26114 -0.20247,1.13234 -0.26171,1.31026 -0.0576,0.17296 0,0.46853 0,0.65514 0,0.22232 -0.218,0.61159 -0.13082,0.78615 0.0666,0.13335 0.28631,0.20881 0.39257,0.26209 1.16922,0.58539 2.41105,-0.37604 2.74784,1.31026 0.1929,0.96574 0.13082,2.00398 0.13082,3.01362 0,0.21838 -0.18702,0.54278 0,0.65514 0.19074,0.11452 0.44326,0.0606 0.65425,0.13119 0.18507,0.0618 0.33584,0.20834 0.52341,0.26205 0.38894,0.11119 1.19261,-2e-5 1.5702,-2e-5 0.13787,2e-5 0.52416,-0.26128 0.65424,-0.131 0.086,0.0863 0.72587,1.06063 0.78511,1.17928 0.039,0.0781 -0.0617,0.20027 0,0.26204 0.38796,0.38847 2.44299,0.0945 3.00953,-2e-5 0.98218,-0.16394 1.32624,0.18551 2.22446,0.39307 0.10379,0.0241 2.42155,0.22972 2.48615,0.26209 0.86582,0.43347 0.2992,1.803189 1.57021,2.227469 0.48693,0.16256 1.07136,0.0312 1.5702,0.13099 0.40847,0.082 0.77783,0.42404 1.17766,0.52411 0.32022,0.0802 0.73384,-0.10452 1.04678,-1e-4 0.0586,0.0202 0.0871,0.0873 0.13082,0.131 0.0873,0.0437 0.16704,0.10726 0.26171,0.13099 0.5045,0.12629 1.1081,-0.17747 1.57018,0.13099 0.65657,0.4383 -0.0157,1.26328 0.13082,1.70338 0.25918,0.77854 1.57048,1.7035 2.22446,2.09643 0.11828,0.0706 0.27779,0.0549 0.39254,0.131 0.0364,0.0241 -0.0362,0.10687 0,0.13099 0.82785,0.55264 1.83991,0.37253 2.74787,0.5242 0.41516,0.0694 0.78501,0.3145 1.17763,0.39304 0.30836,0.0624 0.61321,0.0553 0.91595,0.13099 0.88389,0.22136 1.87263,1.21136 2.09361,2.09644 0.0638,0.25556 0.14041,1.4926 0,1.703358 -0.47652,0.71574 -0.95866,1.484067 -1.57021,2.096417 -0.33996,0.34043 -0.74485,0.14119 -0.91594,0.65514 -0.12436,0.37375 -0.33445,1.55768 -0.13082,1.9654 0.0846,0.16943 0.24706,0.42239 0.13082,0.65515 -0.13572,0.27194 -0.48457,0.53128 -0.65426,0.78615 -0.18526,0.27834 0.29291,-0.0208 -0.13082,0.26206 -0.69315,0.46271 -1.51221,0.64065 -2.22446,1.04822 -0.56043,0.32068 -1.17176,0.91603 -1.83189,1.04822 -1.23357,0.24704 -1.13587,-0.41265 -2.09361,0.78615 -0.18956,0.23732 -0.31805,0.22573 -0.39254,0.52411 -0.0644,0.25826 -0.11594,1.81208 -0.13082,1.83439 -0.69513,1.0441 -1.58062,1.15721 -2.61701,1.57231 -0.43294,0.17335 -0.83761,0.44553 -1.30849,0.52413 -0.12847,0.0214 -0.63211,-0.0767 -0.78511,2e-5 -0.41887,0.20972 0.15725,0.0524 -0.26169,0.26204 -0.76635,0.38371 -1.28535,1.02969 -1.96275,1.57235 -0.0118,0.01 -2.17409,0.17139 -2.3553,0.26207 -0.59695,0.29887 -0.52203,1.30751 -0.78511,1.83435 -0.2037,0.40796 -0.34404,0.27336 -0.5234,0.39309 -0.0811,0.0541 -0.0619,0.19296 -0.13082,0.26205 -0.21994,0.22027 -0.6578,0.39486 -0.91594,0.52411 -0.13709,0.0684 -0.50282,6e-5 -0.65424,-2e-5 -0.74943,4e-5 -1.30254,0.0177 -1.57021,-0.78615 -0.0507,-0.15237 -0.0615,-0.38538 -0.13081,-0.52413 -0.37882,-0.75865 -0.004,-1.81475 0.13081,-2.62053 0.16862,-1.01284 0.004,-2.11932 0.13082,-3.14465 0.027,-0.21634 0.2696,-1.4492 0.39257,-1.57233 0.0307,-0.0308 0.10007,0.0314 0.13081,-4e-5 0.10458,-0.10472 0.10751,-1.84008 0.13082,-2.09644 0.0382,-0.42111 0.49385,-2.15561 0.26171,-2.62051 -0.14041,-0.2812 -0.14296,-0.006 -0.39255,-0.13138 -0.2207,-0.1106 -0.32263,-0.38051 -0.52342,-0.52411 -0.41622,-0.2977 -0.88406,-0.63386 -1.30849,-0.91717 -0.33143,-0.22127 -0.72899,-0.2854 -1.0468,-0.5241 -0.18879,-0.14178 -0.32542,-0.39197 -0.52341,-0.52412 -0.0811,-0.0541 -0.2076,-0.0504 -0.26169,-0.13099 -0.0484,-0.0726 0.039,-0.18394 0,-0.26205 -0.26069,-0.5221 -0.26184,-5.1e-4 -0.39254,-0.5241 -0.0317,-0.12707 0.0924,-0.30045 0,-0.3931 -0.33627,-0.33672 -0.97958,-0.718107 -1.30852,-1.179227 -0.32143,-0.45065 -0.41951,-1.102208 -0.65425,-1.572328 -0.21187,-0.42433 -1.19295,-1.22525 -1.3085,-1.57232 -0.0276,-0.083 0,-0.17473 0,-0.26205 -0.0437,-0.13099 -0.0797,-0.26485 -0.13081,-0.39308 -0.15412,-0.38587 -0.26169,-0.62015 -0.26169,-1.04822 0,-0.15884 -0.0799,-0.75707 0,-0.9172 0.0196,-0.039 0.10007,0.0314 0.13081,-6e-5 0.0617,-0.0616 -0.039,-0.18394 0,-0.26205 0.18507,-0.37058 0.77421,-1.16834 1.04681,-1.44127 0.21477,-0.2151 0.93077,-0.43767 1.04678,-0.78619 0.27424,-0.82383 -0.46297,-3.00358 -0.13082,-3.668739 0.0962,-0.19257 0.86012,-0.16865 1.04681,-0.26207 0.14452,-0.0724 0.38814,-0.30279 0.5234,-0.39308 0.39474,-0.26351 0.39254,-0.291 0.39254,-0.78615 0,-0.0875 0.0617,-0.20029 0,-0.26207 -0.055,-0.0551 -0.47548,0.0239 -0.5234,-5e-5 -0.039,-0.0196 0.0419,-0.11903 0,-0.131 -0.14021,-0.0404 -2.68515,-0.19927 -2.74786,-0.26204 -0.0307,-0.0308 0.0196,-0.092 0,-0.131 -0.16078,-0.32197 -0.74475,-0.74576 -0.91595,-0.91718 -0.047,-0.0471 -0.19563,-0.78482 -0.26169,-0.91719 -0.26797,-0.53668 -1.01369,-0.88403 -1.43935,-1.31028 -0.27073,-0.27109 0.41372,0.01 -0.13081,-0.26205 -0.21794,-0.10903 -0.75423,-0.23102 -0.91595,-0.39307 -0.0307,-0.0308 0.0307,-0.10021 0,-0.131 -0.11065,-0.11079 -0.64211,-0.34534 -0.78511,-0.39305 -0.16548,-0.0553 -0.35789,0.0553 -0.5234,-6e-5 -0.29025,-0.0969 -0.67421,-0.69511 -0.7851,-0.91721 -0.13316,-0.26685 -0.38463,-0.12315 -0.5234,-0.26202 -0.0307,-0.0308 0.0307,-0.10021 0,-0.131 -0.29909,-0.2995 -2.1146,0.3791 -2.48615,0.131 -0.76974,-0.51386 -1.13093,-0.4352 -2.0936,-0.91719 -0.43935,-0.21994 -0.99742,-0.73668 -1.3085,-1.04822 -0.30193,-0.30232 -0.86638,-0.8179 -1.0468,-1.17925 -0.0629,-0.1257 0.0419,-0.39825 0,-0.52411 -0.0196,-0.0586 -0.0873,-0.0873 -0.13082,-0.13099 -0.0437,-0.0873 -0.10007,-0.16943 -0.13081,-0.26204 -0.0276,-0.0829 0.039,-0.18394 0,-0.26205 -0.0552,-0.1104 -0.22268,-0.14491 -0.26169,-0.26208 -0.1036,-0.31135 0.1549,-0.23797 -0.13082,-0.52411 -0.0307,-0.0308 -0.10007,0.0308 -0.13081,4e-5 -0.0307,-0.0308 0.0243,-0.0947 0,-0.131 -0.54444,-0.81776 -1.24759,-1.57839 -1.8319,-2.35853 -0.2648,-0.35353 0.002,-0.21469 -0.26171,-0.6551 -0.30906,-0.51583 -0.2143,-0.008 -0.52338,-0.52412 -0.0709,-0.11841 -0.0482,-0.28258 -0.13082,-0.3931 -0.0585,-0.078 -0.1927,-0.0621 -0.26171,-0.13091 -0.0552,-0.0552 -0.0591,-0.54732 -0.13081,-0.65514 -0.10791,-0.16202 -0.10732,-0.13092 -0.26171,-0.13092 -0.69721,5e-5 0.057,1.26481 0.26171,1.57234 0.40147,0.60303 0.98358,1.90209 1.43934,2.3585 0.0689,0.0691 0.20077,0.0551 0.2617,0.13091 0.0358,0.045 0.655,1.30954 0.5234,1.44131 -0.25821,0.25856 -1.42351,-1.40957 -1.57021,-1.70334 -0.25462,-0.50998 -0.01,-0.32947 -0.26169,-0.91717 -0.38377,-0.89671 -0.17194,0.0973 -0.39254,-0.78618 -0.0272,-0.10854 0.0495,-0.29384 0,-0.39308 -0.0828,-0.16582 -0.28153,-0.24483 -0.39257,-0.39309 -0.13336,-0.17808 -0.15941,-0.50135 -0.26169,-0.65513 -0.51234,-0.76954 -1.28262,-1.38944 -1.70106,-2.22747 -0.11104,-0.22247 -0.14433,-0.55093 -0.26169,-0.78616 -0.12572,-0.25179 -0.39768,-0.40335 -0.5234,-0.65513 -0.0625,-0.12515 -0.0879,-0.54776 -0.13082,-0.65512 -0.0971,-0.24292 -0.28425,-0.43827 -0.39254,-0.65514 -0.0523,-0.10493 0.0523,-0.28828 0,-0.39307 -0.0196,-0.0389 -0.10007,0.0308 -0.13082,4e-5 -0.24189,-0.24224 -0.30844,-0.70191 -0.5234,-0.91718 -0.0689,-0.0691 -0.1927,-0.0621 -0.26169,-0.13091 -0.0235,-0.0238 0,-1.5358 0,-1.70336 0,-0.44195 0.17664,-0.75369 0.26169,-1.17925 0.0889,-0.44519 -0.0198,-0.59563 0.13081,-1.0482 0.1177,-0.35378 -0.11769,-0.82547 0,-1.17925 -0.0789,-0.23715 0.21197,-0.24368 0.2617,-0.39307 0.11906,-0.35745 0.51408,-1.58635 0.26171,-1.9654 -0.17704,-0.26589 -0.57193,-0.70374 -0.7851,-0.9172 -0.0307,-0.0309 -0.10007,0.0308 -0.13081,4e-5 -0.23962,-0.23996 -0.15138,-0.56527 -0.26171,-0.78618 -0.10027,-0.20066 -0.23318,-0.10256 -0.39255,-0.26208 -0.0437,-0.0438 -0.0871,-0.34941 -0.13081,-0.39309 -0.10908,-0.10926 -0.28351,-0.15282 -0.39255,-0.26207 -0.0264,-0.0264 -0.0264,-0.62858 0,-0.65514 0.10908,-0.10919 0.28351,-0.15276 0.39255,-0.26206 0.15647,-0.1567 0.36697,-0.62955 0.5234,-0.78618 0.0975,-0.0977 0.44947,-0.18806 0.5234,-0.26205 0.008,-0.008 0.49308,-1.08815 0.5234,-1.17924 0.0276,-0.083 -0.039,-0.18396 0,-0.26204 0.0196,-0.0391 0.11143,0.0393 0.13082,-4e-5 0.039,-0.078 -0.039,-0.18396 0,-0.26207 0.0196,-0.0391 0.10007,0.0314 0.13081,-4e-5 0.0879,-0.088 0.4333,-0.5814 0.65424,-0.65511 0.0828,-0.0279 0.18369,0.0383 0.26171,-7e-5 0.0871,-0.044 0.0437,-0.21841 0.13081,-0.26206 0.19586,-0.098 0.65857,-0.33404 0.7851,-0.52411 0.18995,-0.28516 0.52489,-1.00553 0.78509,-1.17923 0.0726,-0.0484 0.18369,0.0383 0.26171,-8e-5 0.12337,-0.0618 0.0333,-0.29542 0.13082,-0.39309 0.33315,-0.33361 0.95256,-0.72847 1.17763,-1.17923 0.10771,-0.21584 0.33423,-0.59675 0.52341,-0.78618 0.27714,-0.2775 0.83038,-0.74333 1.17765,-0.91719 0.22071,-0.11066 0.4062,-0.0757 0.65426,-0.26205 0.43412,-0.32601 0.62986,-0.86611 1.0468,-1.17924 0.75895,-0.56996 1.08059,-0.75377 1.96275,-1.04821 0.21091,-0.0704 0.32154,-0.42305 0.52338,-0.52411 0.1271,-0.0636 0.39625,-0.0675 0.52342,-0.131 0.29287,-0.14668 0.32424,-0.35888 0.65424,-0.52409 0.11711,-0.0585 0.26841,0.0415 0.39255,9e-5 0.55293,-0.18453 1.48905,-0.55564 1.83191,0.13109 0.10105,0.20256 0.083,0.98764 0.13082,1.17927 z"
       id="path870"
       inkscape:export-xdpi="10.938344"
       inkscape:export-ydpi="10.938344"
       inkscape:export-filename="/Users/josephkranak/Documents/GitHub/Codeworks/Projects/tutorworld/client/public/logo.png" />
    <path
       id="path872"
       style="fill:#ffffff;fill-opacity:1;stroke:#f082ac;stroke-width:0.264584px;stroke-linecap:butt;stroke-linejoin:miter;stroke-opacity:1"
       d="m 104.81502,46.760706 c -0.69623,0.0739 -0.90575,0.38483 -0.90575,1.16152 0,0.13099 -0.0585,0.27596 0,0.39317 0.0196,0.0389 0.0999,-0.03 0.13062,7.3e-4 0.10712,0.10716 -0.0117,0.64294 0.13062,0.78613 0.0689,0.0688 0.19309,0.0614 0.2621,0.13041 0.20475,0.20518 0.2773,0.55581 0.39265,0.78677 0.0842,0.1684 0.50413,0.60459 0.65374,0.65456 0.0828,0.0284 0.17939,-0.0289 0.26213,-3.9e-4 0.27287,0.0911 0.70636,0.94256 0.7853,1.17938 0.0221,0.0665 0.0578,0.85944 0,0.91709 -0.0975,0.0975 -0.29514,0.0336 -0.39266,0.13139 -0.0308,0.0309 0.0308,0.0999 0,0.13079 -0.1973,0.19758 -1.16653,-0.38167 -1.30851,-0.52389 -0.63522,-0.63607 -0.83889,-1.52201 -1.3085,-2.22734 -0.0879,-0.13221 -0.18192,-0.57506 -0.26212,-0.6553 -0.0372,-0.0372 -0.51339,-0.37201 -0.52318,-0.39335 -0.31882,-0.6385 0.48071,-2.22668 -1.0464,-2.22668 -0.21809,-7e-5 -0.45971,-0.0969 -0.65476,-1.1e-4 -0.98416,0.49273 -0.0691,1.59864 0.2621,2.0963 0.0541,0.0813 0.0544,0.2014 0.13062,0.26223 0.19734,0.15799 0.64059,0.30626 0.78531,0.52373 0.10007,0.15043 0.20196,0.8708 0.2611,1.04832 0.057,0.17105 0.46393,0.81208 0.26818,1.03738 0.13179,0.0292 0.2629,0.068 0.38657,0.14219 1.04498,0.62783 0.54265,0.84259 0.78531,1.57156 0.0358,0.10772 0.34644,0.72526 0.39266,0.78677 0.44487,0.59409 0.10027,-0.45361 0.52319,0.39335 0.19269,0.38598 -0.0562,1.19721 0.13062,1.57147 0.103,0.20624 0.13062,0.14954 0.13062,0.39396 0,0.26198 0.0439,0.044 -0.13062,0.13087 -0.84381,0.42258 -1.72693,-1.0143 -2.48647,-2.1e-4 -0.30818,0.41139 -0.11946,3.72611 0,4.32402 0.0527,0.26375 0.21581,0.47791 0.39265,0.65505 0.0999,0.1 1.03891,2.8e-4 1.17797,2.4e-4 0.49232,6e-5 1.6931,0.0118 1.96224,-0.39329 0.29876,-0.44863 0.57398,-1.28988 0.39266,-1.83479 -0.0486,-0.14564 -0.23572,-0.31292 -0.13062,-0.52366 0.25362,-0.5079 0.8842,-0.63382 1.30851,-0.91709 0.12103,-0.0804 0.10223,-0.37882 0.13062,-0.39343 0.33887,-0.17021 1.30995,5e-5 1.57062,0.26163 0.0689,0.069 0.0617,0.19327 0.13062,0.26222 0.0307,0.0307 0.087,-3.4e-4 0.13062,-2.7e-4 0.0871,0.0436 0.19309,0.0623 0.2621,0.13138 0.0656,0.0657 0.17625,0.30689 0.2621,0.39284 0.0975,0.0986 0.29512,0.0345 0.39265,0.1311 0.26913,0.26948 0.58769,0.72033 0.78431,1.04845 0.30017,0.501 0.39548,1.05259 0.65474,1.57182 0.30871,0.61825 1.28672,2.08635 1.83172,2.35924 0.0779,0.0389 0.18408,-0.0395 0.2621,-2e-4 0.21873,0.1096 0.64506,0.39275 0.78429,0.39284 -0.0435,-0.17437 -0.0871,-0.34922 -0.13062,-0.52366 -0.0435,1.7e-4 -0.0999,0.0312 -0.13062,2.7e-4 -0.1833,-0.18354 -0.17213,-0.95403 -0.2621,-1.17921 -0.32612,-0.81642 -0.82506,-1.5654 -1.17693,-2.35815 -0.37218,-0.83857 -0.31091,-1.82863 -0.78531,-2.62038 -0.28738,-0.47965 -0.71126,-0.86317 -1.04641,-1.31061 -0.47519,-0.63447 -1.01559,-1.41648 -1.44006,-2.09654 -0.50814,-0.81413 -0.54791,-1.88324 -0.91584,-2.62013 -0.0746,-0.14946 -0.12965,-0.25012 -0.17919,-0.3377 -0.0497,-9.4e-4 -0.10144,-0.006 -0.15686,-0.0199 -0.0558,0.20432 -0.16587,0.27674 -0.4382,-0.0676 -0.12337,-0.15631 -0.23083,-0.32365 -0.34104,-0.48885 -0.87829,-0.96107 -0.87218,-0.88297 -1.66877,-2.21294 -0.0397,-0.0664 -0.0715,-0.13617 -0.10731,-0.20446 -0.0118,-0.0178 -0.0253,-0.0341 -0.0364,-0.0521 -0.14766,-0.19864 -0.29232,-0.39902 -0.44324,-0.59508 -0.0885,-0.088 -0.14081,-0.15585 -0.19329,-0.22355 -0.11691,-0.11086 -0.24779,-0.2124 -0.31472,-0.35248 -0.0629,-0.13151 -0.12436,-0.2702 -0.18722,-0.407 z m -2.07763,5.21272 c -0.17997,-0.0416 -0.36115,-0.0635 -0.52928,-0.11954 -0.11985,-0.0408 -0.32087,-0.13 -0.49688,-0.20324 0.0799,0.36454 0.2638,0.58089 0.75799,0.33346 0.0779,-0.039 0.20041,0.0625 0.2621,5.7e-4 0.004,-0.003 0.004,-0.007 0.006,-0.0108 z m -1.02616,-0.32316 c -0.0989,-0.45058 -0.0351,-1.13155 -0.15784,-1.50029 -0.11065,-0.33241 -0.41581,-0.54799 -0.65375,-0.78627 -0.10908,-0.10907 -0.35242,-0.21636 -0.52319,-0.13082 -0.588429,0.29459 -0.30001,1.54649 0.13062,1.83394 0.24724,0.16504 0.75652,0.39741 1.20428,0.58353 z m 3.39726,-4.74158 c -0.0213,-0.0116 -0.0384,-0.0186 -0.0364,-5.7e-4 0.004,0.0291 0.0402,0.0489 0.0738,0.0566 0.002,-0.0116 0.004,-0.0211 0.006,-0.0313 -0.0137,-0.008 -0.0284,-0.0149 -0.0425,-0.0232 z"
       inkscape:export-xdpi="10.938344"
       inkscape:export-ydpi="10.938344"
       inkscape:export-filename="/Users/josephkranak/Documents/GitHub/Codeworks/Projects/tutorworld/client/public/logo.png" />
    <path
       style="fill:#ffffff;fill-opacity:1;stroke:#f082ac;stroke-width:0.264584px;stroke-linecap:butt;stroke-linejoin:miter;stroke-opacity:1"
       d="m 71.602268,33.696826 c 0.18643,0.008 3.26288,-0.21069 4.31804,0.39309 0.0846,0.0485 0.0768,0.18082 0.13082,0.26204 0.52117,0.78281 -0.14648,1.52528 0.13082,2.35848 0.0266,0.08 0.23507,0.31314 0.26169,0.3931 0.0742,0.22295 0.0732,0.42426 0.13081,0.65513 0.15197,0.6084 0.50529,1.43767 1.17766,1.57231 0.0999,0.0196 0.4162,-0.0538 0.5234,5e-5 0.30266,0.15148 0.34809,0.82818 0.5234,1.17926 0.25739,0.51547 1.15569,0.63313 1.43935,0.91719 0.53363,0.53437 0.19251,1.52615 1.0468,2.09642 1.0311,0.68834 2.03204,0.10628 2.74785,0.39301 0.62413,0.25002 0.35436,0.25258 0.91594,0.39308 0.47057,0.11779 1.62831,0.073 1.96275,-0.26204 0.2125,-0.2128 -0.28182,-2.99347 0.39257,-3.66877 0.0347,-0.0347 0.33865,-1e-5 0.39255,9e-5 0.25734,-6e-5 0.93508,0.12139 1.17763,-1e-5 0.18996,-0.0951 0.2821,-0.20165 0.52341,-0.26205 0.13434,-0.0337 0.42272,-0.0303 0.5234,-0.13099 0.31397,-0.3144 0.13081,-1.4023 0.13081,-1.83438 0,-0.93946 0.5536,-0.0299 0.91595,-0.39307 0.0617,-0.0617 -0.039,-0.18396 0,-0.26207 0.0742,-0.14868 0.19891,-0.18864 0.13082,-0.39308 -0.0913,-0.27425 -0.66415,-0.6601 -0.91595,-0.78615 -0.35062,-0.17545 -0.92028,-0.16445 -1.30851,-0.26203 -0.91023,-0.22797 -1.74082,-0.69726 -2.61701,-1.0482 -1.31717,-0.52758 0.27783,0.1024 -0.65424,-0.13121 -0.57947,-0.14507 -1.11088,-0.50739 -1.70106,-0.65513 -0.1269,-0.0322 -0.2656,0.0317 -0.39254,-9e-5 -0.53367,-0.13325 -1.03654,-0.39052 -1.57021,-0.52411 -0.69465,-0.17403 -1.39368,-0.25196 -2.09358,-0.39319 -0.31138,-0.0628 -0.6046,-0.19969 -0.91597,-0.26193 -1.09041,-0.21841 -2.31168,0.21839 -3.4021,1e-5 -0.7724,-0.15403 -1.75231,-0.24488 -2.48615,0 -0.12416,0.0414 -0.30001,-0.0926 -0.39255,-9e-5 -0.0307,0.0309 0.039,0.1116 0,0.13099 -0.0828,0.0417 -0.43935,-0.0678 -0.5234,-5e-5 -0.1927,0.15443 -0.34893,0.34939 -0.5234,0.5241 z"
       id="path874"
       inkscape:export-xdpi="10.938344"
       inkscape:export-ydpi="10.938344"
       inkscape:export-filename="/Users/josephkranak/Documents/GitHub/Codeworks/Projects/tutorworld/client/public/logo.png" />
    <path
       style="fill:#ffffff;fill-opacity:1;stroke:#f082ac;stroke-width:0.264584px;stroke-linecap:butt;stroke-linejoin:miter;stroke-opacity:1"
       d="m 112.42749,66.702426 c -0.5196,-0.85544 -2.08816,-1.68159 -2.35529,-2.75156 -0.0635,-0.25423 0.0634,-0.53193 0,-0.78617 -0.0157,-0.06 -0.11143,-0.0724 -0.13082,-0.13096 -0.0419,-0.12583 0.0629,-0.39835 0,-0.5241 -0.43236,-0.86591 -0.84901,-0.78617 -1.8319,-0.78617 -0.48546,-2e-5 -1.69677,0.87208 -2.22446,1.0482 -0.42963,0.14335 -1.20372,-0.10487 -1.57018,0.26207 -0.0308,0.0309 0.0196,0.0919 0,0.13099 -0.10027,0.20069 -0.2332,0.10256 -0.39257,0.26207 -0.11789,0.11803 -0.55011,1.10171 -0.65423,1.31025 -0.15902,0.31839 -0.59449,0.46429 -0.78511,0.65514 -0.0758,0.0758 -0.18585,0.44817 -0.2617,0.52412 -0.24283,0.24317 -0.86203,0.36606 -1.17765,0.5241 -0.49219,0.24643 -0.75605,1.52869 -1.046809,1.96542 -0.13688,0.20556 -0.44538,0.28971 -0.5234,0.52409 -0.13081,0.39308 0.13082,0.91721 0,1.31027 -0.11985,0.36024 -0.628973,0.34246 -0.785093,0.65514 -0.41462,0.83035 0.938213,2.16059 0.654243,3.01363 -0.111823,0.33591 -0.360203,0.72138 -0.523383,1.04824 -0.11946,0.23935 -0.0824,1.32458 0,1.57232 0.24101,0.72402 0.892763,1.2522 1.177633,1.96539 0.0323,0.0812 -0.039,0.18394 0,0.26204 0.0196,0.039 0.0874,-2.5e-4 0.130819,-4e-5 0.0437,0.0437 0.11143,0.0724 0.13082,0.131 0.13003,0.39047 0.20666,0.67596 0.39254,1.04824 0.11339,0.22696 -0.0476,0.38711 0.13082,0.65512 0.61025,0.91661 2.67679,1.45625 3.66379,1.70334 0.38303,0.0959 1.13244,0.61227 1.5702,0.39313 0.21166,-0.10569 0.19583,-0.39272 0.39255,-0.52411 0.21432,-0.14315 0.76864,-0.24557 0.91595,-0.39307 0.0307,-0.0308 -0.039,-0.11139 0,-0.131 0.19544,-0.0978 0.58669,-0.0318 0.78511,-0.13099 0.32586,-0.16315 0.0852,-0.39308 0.5234,-0.3931 0.0942,9.4e-4 0.89903,-0.0739 1.0468,-9e-5 0.24581,0.12295 0.21849,0.48083 0.39255,0.65512 0.0307,0.0308 0.11143,-0.039 0.13081,-4e-5 0.039,0.0782 -0.039,0.18394 0,0.26206 0.0607,0.12158 0.30237,0.0416 0.39255,0.131 0.0793,0.0794 0.46941,0.57405 0.5234,0.65514 0.039,0.0586 0,0.31997 0,0.39307 0,0.1961 0.11241,0.93568 0,1.04822 -0.29504,0.29544 -1.08857,0.79171 -0.91595,1.31028 0.29031,0.87209 1.40665,1.53951 1.04681,2.620529 -0.12299,0.36929 -0.72805,0.67189 -0.91597,1.04822 -0.36815,0.7373 -0.25333,1.39939 -0.39255,2.09645 -0.15275,0.76525 -0.5234,1.38294 -0.5234,2.09642 0,1.10919 -0.15353,1.35574 -0.65426,2.35848 -0.13884,0.27822 0,1.04496 0,1.31028 0,0.10472 -0.20991,1.762718 0.39257,1.31029 1.34897,-1.01312 2.56932,-2.69163 3.00955,-4.45492 0.12377,-0.49589 0.13434,-1.06246 0.26169,-1.57235 0.12632,-0.50599 0.42189,-1.06406 0.52341,-1.5723 0.2706,-1.3548 0.43071,-2.82798 1.0468,-4.061869 0.0828,-0.16589 0.216,-1.52028 0.26171,-1.70334 0.17781,-0.71248 0.29204,-1.53248 0.5234,-2.22746 0.37447,-1.12497 0.16391,-0.001 0.39255,-0.91719 0.0856,-0.3426 0.0311,-0.67355 0.13081,-1.04822 0.29177,-1.09559 0.60489,-2.1854 0.91597,-3.27566 0.12514,-0.43846 0.3233,-0.8596 0.39254,-1.31029 0.28183,-1.83433 0.12377,-3.70148 -0.26171,-5.50314 -0.17527,-0.81884 -0.59809,-1.48481 -0.91594,-2.22743 -0.15334,-0.35806 -0.24638,-1.03289 -0.5234,-1.31029 -0.0308,-0.0307 -0.10007,0.0308 -0.13082,4e-5 -0.18506,-0.18523 0.0719,-0.53419 0,-0.78615 -0.11593,-0.40657 -0.54876,-0.86438 -0.91597,-1.04823 -1.48404,-0.74299 -0.46541,1.12116 -0.78509,1.4413 -0.15725,0.15754 -0.43849,-0.0771 -0.65428,-0.13121 z"
       id="path876"
       inkscape:export-xdpi="10.938344"
       inkscape:export-ydpi="10.938344"
       inkscape:export-filename="/Users/josephkranak/Documents/GitHub/Codeworks/Projects/tutorworld/client/public/logo.png" />
    <path
       style="fill:#ffffff;fill-opacity:1;stroke:#f082ac;stroke-width:0.264584px;stroke-linecap:butt;stroke-linejoin:miter;stroke-opacity:1"
       d="m 96.725488,41.762346 c -1.89642,10e-6 -3.53859,-0.91875 -5.4957,-0.91721 -0.34894,0.13095 -0.76052,0.15413 -1.04681,0.39311 -0.0956,0.0796 1.69517,0.7981 1.96275,0.91717 0.44353,0.19734 1.08895,0.43528 1.43935,0.78615 0.0756,0.0757 0.0554,1.15147 0.78512,0.78618 1.18494,-0.59327 -0.95547,0.01 1.70103,-0.65512 0.7419,-0.1857 0.96583,0.14327 1.17766,-0.91719 0.076,-0.38068 -0.1081,-0.28914 -0.5234,-0.39309 z"
       id="path884"
       inkscape:export-xdpi="10.938344"
       inkscape:export-ydpi="10.938344"
       inkscape:export-filename="/Users/josephkranak/Documents/GitHub/Codeworks/Projects/tutorworld/client/public/logo.png" />
    <path
       style="fill:#ffffff;fill-opacity:1;stroke:#577184;stroke-width:0.999996;stroke-linecap:butt;stroke-linejoin:miter;stroke-miterlimit:4;stroke-dasharray:none;stroke-opacity:1"
       d="m 30.935234,27.561984 1.511905,32.30931 c 26.15909,8.16005 53.467998,7.79808 81.642861,-0.29372 l 1.13393,-32.01559"
       id="path853"
       sodipodi:nodetypes="cccc"
       inkscape:export-filename="/Users/josephkranak/Documents/GitHub/Codeworks/Projects/tutorworld/client/public/logo.png"
       inkscape:export-xdpi="10.938344"
       inkscape:export-ydpi="10.938344" />
    <rect
       style="fill:#577184;fill-opacity:1;stroke:#577184;stroke-width:1.3789;stroke-opacity:1"
       id="rect833"
       width="73.511055"
       height="73.511055"
       x="39.466404"
       y="-38.169968"
       transform="matrix(0.96190538,0.27338259,-0.96190538,0.27338259,0,0)"
       inkscape:export-filename="/Users/josephkranak/Documents/GitHub/Codeworks/Projects/tutorworld/client/public/logo.png"
       inkscape:export-xdpi="10.938344"
       inkscape:export-ydpi="10.938344" />
    <rect
       style="fill:#f082ac;fill-opacity:1;stroke:#ffffff;stroke-width:1.38863;stroke-miterlimit:4;stroke-dasharray:none;stroke-opacity:1"
       id="rect2868"
       width="70.885437"
       height="70.885437"
       x="41.029209"
       y="-36.603436"
       transform="matrix(0.9630738,0.26923753,-0.9630738,0.26923753,0,0)"
       inkscape:export-filename="/Users/josephkranak/Documents/GitHub/Codeworks/Projects/tutorworld/client/public/logo.png"
       inkscape:export-xdpi="10.938344"
       inkscape:export-ydpi="10.938344" />
    <path
       style="fill:#ffffff;fill-opacity:1;stroke:#f082ac;stroke-width:0.264584px;stroke-linecap:butt;stroke-linejoin:miter;stroke-opacity:1"
       d="m 67.022528,79.602016 c -0.93551,0.0839 -2.05548,-0.22389 -2.61701,-0.78618 -0.35882,-0.35931 -1.39587,-0.65512 -1.83191,-0.65512 -0.18585,-6e-5 -0.87443,0.17257 -0.5234,0.52411 0.0617,0.0618 0.20002,-0.0618 0.26171,-6e-5 0.0307,0.0308 -0.0307,0.10021 0,0.13099 0.11809,0.11825 0.49833,0.18394 0.65426,0.26201 0.11025,0.0553 0.14472,0.22298 0.26169,0.26204 0.0828,0.0284 0.18369,-0.039 0.26171,-6e-5 0.039,0.0177 -0.0308,0.10021 0,0.131 0.14824,0.14844 0.60052,0.30075 0.78509,0.39305 0.0779,0.039 0.20002,-0.0618 0.26171,-5e-5 0.10653,0.10667 0.24818,0.32418 0.5234,0.39307 0.47605,0.11923 0.89975,0.18845 1.30849,0.3932 0.11026,0.0553 0.15138,0.20674 0.2617,0.26204 0.27712,0.13884 0.63862,0.24632 0.78511,0.39308 0.045,0.0451 0.0742,0.44259 0.39254,0.65514 0.35019,0.23381 0.72398,-0.0306 1.04681,0.13119 0.039,0.0196 -0.0308,0.1002 0,0.13099 0.0202,0.0196 1.06154,0.597 1.17765,0.65512 0.20018,0.10021 0.3847,-0.0616 0.52339,-0.13099 0.40844,-0.20451 1.49561,0 1.96276,0 0.23976,-2e-5 1.84522,-0.0137 1.96275,-0.13099 0.0264,-0.0267 0.0264,-0.62859 0,-0.65514 -0.0437,-0.0437 -0.34893,-0.0873 -0.39256,-0.13119 -0.0307,-0.0308 0.0309,-0.10021 0,-0.131 -0.0848,-0.0849 -1.58732,-0.31144 -1.8319,-0.39305 -0.97479,-0.32527 -1.64585,-0.91719 -2.617,-0.91719 -0.18232,-2e-5 -1.39311,-0.34676 -1.43935,-0.39315 -0.0307,-0.0308 0.0307,-0.10021 0,-0.131 -0.0617,-0.0618 -0.20002,0.0618 -0.26169,6e-5 -0.0308,-0.0308 0.039,-0.11138 0,-0.13099 -0.27587,-0.13805 -0.61676,-0.0561 -0.91595,-0.13099 z"
       id="path880"
       inkscape:export-xdpi="10.938344"
       inkscape:export-ydpi="10.938344"
       inkscape:export-filename="/Users/josephkranak/Documents/GitHub/Codeworks/Projects/tutorworld/client/public/logo.png" />
    <text
       xml:space="preserve"
       style="font-style:normal;font-weight:normal;font-size:22.93059999999999832px;line-height:1.25;font-family:sans-serif;letter-spacing:2.64583000000000013px;word-spacing:3.17499999999999982px;fill:#f082ac;fill-opacity:1;stroke:#577184;stroke-width:0.1;stroke-miterlimit:4;stroke-dasharray:none;stroke-opacity:1;"
       id="text2888"
       x="46.432762"
       y="59.177425"
       inkscape:export-filename="/Users/josephkranak/Documents/GitHub/Codeworks/Projects/tutorworld/client/public/logo.png"
       inkscape:export-xdpi="10.938344"
       inkscape:export-ydpi="10.938344"><tspan
         id="tspan2886"
         style="font-style:normal;font-variant:normal;font-weight:normal;font-stretch:normal;font-size:22.93059999999999832px;font-family:Noteworthy;-inkscape-font-specification:Noteworthy;fill:#f082ac;fill-opacity:1;stroke:#577184;stroke-width:0.1;stroke-miterlimit:4;stroke-dasharray:none;stroke-opacity:1;"
         dx="0">Tutor</tspan></text>
    <text
       xml:space="preserve"
       style="font-style:normal;font-weight:normal;font-size:19.4028px;line-height:1.25;font-family:sans-serif;fill:#577184;fill-opacity:1;stroke:none;stroke-width:0.2;stroke-miterlimit:4;stroke-dasharray:none"
       id="text852"
       transform="translate(0.2971787,-1.5453293)"><textPath
         xlink:href="#path857"
         id="textPath863"><tspan
           id="tspan850"
           style="font-style:normal;font-variant:normal;font-weight:normal;font-stretch:normal;font-size:19.4028px;font-family:Noteworthy;-inkscape-font-specification:Noteworthy;fill:#577184;fill-opacity:1;stroke:#fffff4;stroke-width:0.2;stroke-miterlimit:4;stroke-dasharray:none;stroke-opacity:1"
           rotate="0 0 0 0 0 0">World</tspan></textPath></text>
    <path
       style="fill:none;stroke:#f082ac;stroke-width:0.26458300000000001px;stroke-linecap:butt;stroke-linejoin:miter;stroke-opacity:1"
       d="m 30.921147,80.337473 c 2.401609,15.44054 9.435685,24.763367 20.517912,31.341537"
       id="path857"
       sodipodi:nodetypes="cc" />
  </g>
</svg>
